<svg width="273" height="112" viewBox="0 0 273 112" fill="none" xmlns="http://www.w3.org/2000/svg">
<g filter="url(#filter0_d_302_4243)">
<rect x="16" y="12" width="241" height="80" rx="8" fill="#06060D"/>
<path fill-rule="evenodd" clip-rule="evenodd" d="M69.4616 32C69.8175 34.4177 68.8334 36.7863 67.5353 38.4621C66.1463 40.2596 63.7524 41.6498 61.4329 41.5773C61.0095 39.2625 62.0936 36.8776 63.4127 35.2743C64.8598 33.5049 67.3398 32.1475 69.4616 32ZM76.4292 66.0315C77.6251 64.1989 78.0717 63.2744 79 61.2054C72.2486 58.6379 71.1668 49.0396 77.8484 45.3557C75.8104 42.7999 72.9465 41.3184 70.2432 41.3184C68.2953 41.3184 66.9607 41.8267 65.7474 42.2888C64.7363 42.6739 63.8094 43.0269 62.6821 43.0269C61.4639 43.0269 60.3852 42.6401 59.2556 42.2351C58.0144 41.7901 56.7118 41.323 55.0955 41.323C52.0618 41.323 48.8326 43.1767 46.7853 46.3457C43.9075 50.809 44.3984 59.1996 49.0653 66.3475C50.7334 68.9056 52.9621 71.7797 55.8772 71.8055C57.0868 71.8175 57.8917 71.4565 58.7627 71.0658C59.7596 70.6187 60.8432 70.1327 62.7193 70.1227C64.6066 70.1114 65.673 70.6033 66.6568 71.057C67.5054 71.4484 68.2925 71.8115 69.4917 71.7985C72.4091 71.7751 74.7612 68.5897 76.4292 66.0315Z" fill="white"/>
<path d="M105.528 31.136C106.44 31.136 107.228 31.308 107.892 31.652C108.564 31.988 109.076 32.472 109.428 33.104C109.788 33.736 109.968 34.48 109.968 35.336C109.968 36.192 109.788 36.936 109.428 37.568C109.076 38.192 108.564 38.672 107.892 39.008C107.228 39.336 106.44 39.5 105.528 39.5H102.924V31.136H105.528ZM105.528 38.6C106.608 38.6 107.432 38.316 108 37.748C108.568 37.172 108.852 36.368 108.852 35.336C108.852 34.296 108.564 33.484 107.988 32.9C107.42 32.316 106.6 32.024 105.528 32.024H104.016V38.6H105.528ZM114.276 39.608C113.66 39.608 113.1 39.468 112.596 39.188C112.1 38.908 111.708 38.512 111.42 38C111.14 37.48 111 36.88 111 36.2C111 35.528 111.144 34.936 111.432 34.424C111.728 33.904 112.128 33.508 112.632 33.236C113.136 32.956 113.7 32.816 114.324 32.816C114.948 32.816 115.512 32.956 116.016 33.236C116.52 33.508 116.916 33.9 117.204 34.412C117.5 34.924 117.648 35.52 117.648 36.2C117.648 36.88 117.496 37.48 117.192 38C116.896 38.512 116.492 38.908 115.98 39.188C115.468 39.468 114.9 39.608 114.276 39.608ZM114.276 38.648C114.668 38.648 115.036 38.556 115.38 38.372C115.724 38.188 116 37.912 116.208 37.544C116.424 37.176 116.532 36.728 116.532 36.2C116.532 35.672 116.428 35.224 116.22 34.856C116.012 34.488 115.74 34.216 115.404 34.04C115.068 33.856 114.704 33.764 114.312 33.764C113.912 33.764 113.544 33.856 113.208 34.04C112.88 34.216 112.616 34.488 112.416 34.856C112.216 35.224 112.116 35.672 112.116 36.2C112.116 36.736 112.212 37.188 112.404 37.556C112.604 37.924 112.868 38.2 113.196 38.384C113.524 38.56 113.884 38.648 114.276 38.648ZM127.844 32.924L125.792 39.5H124.664L123.08 34.28L121.496 39.5H120.368L118.304 32.924H119.42L120.932 38.444L122.564 32.924H123.68L125.276 38.456L126.764 32.924H127.844ZM132.132 32.804C132.932 32.804 133.58 33.048 134.076 33.536C134.572 34.016 134.82 34.712 134.82 35.624V39.5H133.74V35.78C133.74 35.124 133.576 34.624 133.248 34.28C132.92 33.928 132.472 33.752 131.904 33.752C131.328 33.752 130.868 33.932 130.524 34.292C130.188 34.652 130.02 35.176 130.02 35.864V39.5H128.928V32.924H130.02V33.86C130.236 33.524 130.528 33.264 130.896 33.08C131.272 32.896 131.684 32.804 132.132 32.804ZM137.696 30.62V39.5H136.604V30.62H137.696ZM142.425 39.608C141.809 39.608 141.249 39.468 140.745 39.188C140.249 38.908 139.857 38.512 139.569 38C139.289 37.48 139.149 36.88 139.149 36.2C139.149 35.528 139.293 34.936 139.581 34.424C139.877 33.904 140.277 33.508 140.781 33.236C141.285 32.956 141.849 32.816 142.473 32.816C143.097 32.816 143.661 32.956 144.165 33.236C144.669 33.508 145.065 33.9 145.353 34.412C145.649 34.924 145.797 35.52 145.797 36.2C145.797 36.88 145.645 37.48 145.341 38C145.045 38.512 144.641 38.908 144.129 39.188C143.617 39.468 143.049 39.608 142.425 39.608ZM142.425 38.648C142.817 38.648 143.185 38.556 143.529 38.372C143.873 38.188 144.149 37.912 144.357 37.544C144.573 37.176 144.681 36.728 144.681 36.2C144.681 35.672 144.577 35.224 144.369 34.856C144.161 34.488 143.889 34.216 143.553 34.04C143.217 33.856 142.853 33.764 142.461 33.764C142.061 33.764 141.693 33.856 141.357 34.04C141.029 34.216 140.765 34.488 140.565 34.856C140.365 35.224 140.265 35.672 140.265 36.2C140.265 36.736 140.361 37.188 140.553 37.556C140.753 37.924 141.017 38.2 141.345 38.384C141.673 38.56 142.033 38.648 142.425 38.648ZM146.825 36.188C146.825 35.516 146.961 34.928 147.233 34.424C147.505 33.912 147.877 33.516 148.349 33.236C148.829 32.956 149.361 32.816 149.945 32.816C150.521 32.816 151.021 32.94 151.445 33.188C151.869 33.436 152.185 33.748 152.393 34.124V32.924H153.497V39.5H152.393V38.276C152.177 38.66 151.853 38.98 151.421 39.236C150.997 39.484 150.501 39.608 149.933 39.608C149.349 39.608 148.821 39.464 148.349 39.176C147.877 38.888 147.505 38.484 147.233 37.964C146.961 37.444 146.825 36.852 146.825 36.188ZM152.393 36.2C152.393 35.704 152.293 35.272 152.093 34.904C151.893 34.536 151.621 34.256 151.277 34.064C150.941 33.864 150.569 33.764 150.161 33.764C149.753 33.764 149.381 33.86 149.045 34.052C148.709 34.244 148.441 34.524 148.241 34.892C148.041 35.26 147.941 35.692 147.941 36.188C147.941 36.692 148.041 37.132 148.241 37.508C148.441 37.876 148.709 38.16 149.045 38.36C149.381 38.552 149.753 38.648 150.161 38.648C150.569 38.648 150.941 38.552 151.277 38.36C151.621 38.16 151.893 37.876 152.093 37.508C152.293 37.132 152.393 36.696 152.393 36.2ZM154.934 36.188C154.934 35.516 155.07 34.928 155.342 34.424C155.614 33.912 155.986 33.516 156.458 33.236C156.938 32.956 157.474 32.816 158.066 32.816C158.578 32.816 159.054 32.936 159.494 33.176C159.934 33.408 160.27 33.716 160.502 34.1V30.62H161.606V39.5H160.502V38.264C160.286 38.656 159.966 38.98 159.542 39.236C159.118 39.484 158.622 39.608 158.054 39.608C157.47 39.608 156.938 39.464 156.458 39.176C155.986 38.888 155.614 38.484 155.342 37.964C155.07 37.444 154.934 36.852 154.934 36.188ZM160.502 36.2C160.502 35.704 160.402 35.272 160.202 34.904C160.002 34.536 159.73 34.256 159.386 34.064C159.05 33.864 158.678 33.764 158.27 33.764C157.862 33.764 157.49 33.86 157.154 34.052C156.818 34.244 156.55 34.524 156.35 34.892C156.15 35.26 156.05 35.692 156.05 36.188C156.05 36.692 156.15 37.132 156.35 37.508C156.55 37.876 156.818 38.16 157.154 38.36C157.49 38.552 157.862 38.648 158.27 38.648C158.678 38.648 159.05 38.552 159.386 38.36C159.73 38.16 160.002 37.876 160.202 37.508C160.402 37.132 160.502 36.696 160.502 36.2ZM169.519 39.608C168.903 39.608 168.343 39.468 167.839 39.188C167.343 38.908 166.951 38.512 166.663 38C166.383 37.48 166.243 36.88 166.243 36.2C166.243 35.528 166.387 34.936 166.675 34.424C166.971 33.904 167.371 33.508 167.875 33.236C168.379 32.956 168.943 32.816 169.567 32.816C170.191 32.816 170.755 32.956 171.259 33.236C171.763 33.508 172.159 33.9 172.447 34.412C172.743 34.924 172.891 35.52 172.891 36.2C172.891 36.88 172.739 37.48 172.435 38C172.139 38.512 171.735 38.908 171.223 39.188C170.711 39.468 170.143 39.608 169.519 39.608ZM169.519 38.648C169.911 38.648 170.279 38.556 170.623 38.372C170.967 38.188 171.243 37.912 171.451 37.544C171.667 37.176 171.775 36.728 171.775 36.2C171.775 35.672 171.671 35.224 171.463 34.856C171.255 34.488 170.983 34.216 170.647 34.04C170.311 33.856 169.947 33.764 169.555 33.764C169.155 33.764 168.787 33.856 168.451 34.04C168.123 34.216 167.859 34.488 167.659 34.856C167.459 35.224 167.359 35.672 167.359 36.2C167.359 36.736 167.455 37.188 167.647 37.556C167.847 37.924 168.111 38.2 168.439 38.384C168.767 38.56 169.127 38.648 169.519 38.648ZM177.53 32.804C178.33 32.804 178.978 33.048 179.474 33.536C179.97 34.016 180.218 34.712 180.218 35.624V39.5H179.138V35.78C179.138 35.124 178.974 34.624 178.646 34.28C178.318 33.928 177.87 33.752 177.302 33.752C176.726 33.752 176.266 33.932 175.922 34.292C175.586 34.652 175.418 35.176 175.418 35.864V39.5H174.326V32.924H175.418V33.86C175.634 33.524 175.926 33.264 176.294 33.08C176.67 32.896 177.082 32.804 177.53 32.804ZM186.533 33.824V37.7C186.533 38.02 186.601 38.248 186.737 38.384C186.873 38.512 187.109 38.576 187.445 38.576H188.249V39.5H187.265C186.657 39.5 186.201 39.36 185.897 39.08C185.593 38.8 185.441 38.34 185.441 37.7V33.824H184.589V32.924H185.441V31.268H186.533V32.924H188.249V33.824H186.533ZM192.836 32.804C193.332 32.804 193.78 32.912 194.18 33.128C194.58 33.336 194.892 33.652 195.116 34.076C195.348 34.5 195.464 35.016 195.464 35.624V39.5H194.384V35.78C194.384 35.124 194.22 34.624 193.892 34.28C193.564 33.928 193.116 33.752 192.548 33.752C191.972 33.752 191.512 33.932 191.168 34.292C190.832 34.652 190.664 35.176 190.664 35.864V39.5H189.572V30.62H190.664V33.86C190.88 33.524 191.176 33.264 191.552 33.08C191.936 32.896 192.364 32.804 192.836 32.804ZM203.248 35.96C203.248 36.168 203.236 36.388 203.212 36.62H197.956C197.996 37.268 198.216 37.776 198.616 38.144C199.024 38.504 199.516 38.684 200.092 38.684C200.564 38.684 200.956 38.576 201.268 38.36C201.588 38.136 201.812 37.84 201.94 37.472H203.116C202.94 38.104 202.588 38.62 202.06 39.02C201.532 39.412 200.876 39.608 200.092 39.608C199.468 39.608 198.908 39.468 198.412 39.188C197.924 38.908 197.54 38.512 197.26 38C196.98 37.48 196.84 36.88 196.84 36.2C196.84 35.52 196.976 34.924 197.248 34.412C197.52 33.9 197.9 33.508 198.388 33.236C198.884 32.956 199.452 32.816 200.092 32.816C200.716 32.816 201.268 32.952 201.748 33.224C202.228 33.496 202.596 33.872 202.852 34.352C203.116 34.824 203.248 35.36 203.248 35.96ZM202.12 35.732C202.12 35.316 202.028 34.96 201.844 34.664C201.66 34.36 201.408 34.132 201.088 33.98C200.776 33.82 200.428 33.74 200.044 33.74C199.492 33.74 199.02 33.916 198.628 34.268C198.244 34.62 198.024 35.108 197.968 35.732H202.12ZM113.928 65.308H107.256L106.152 68.5H102.624L108.648 51.724H112.56L118.584 68.5H115.032L113.928 65.308ZM113.016 62.62L110.592 55.612L108.168 62.62H113.016ZM124.196 57.124C124.628 56.516 125.22 56.012 125.972 55.612C126.74 55.196 127.612 54.988 128.588 54.988C129.724 54.988 130.748 55.268 131.66 55.828C132.588 56.388 133.316 57.188 133.844 58.228C134.388 59.252 134.66 60.444 134.66 61.804C134.66 63.164 134.388 64.372 133.844 65.428C133.316 66.468 132.588 67.276 131.66 67.852C130.748 68.428 129.724 68.716 128.588 68.716C127.612 68.716 126.748 68.516 125.996 68.116C125.26 67.716 124.66 67.212 124.196 66.604V74.836H120.836V55.204H124.196V57.124ZM131.228 61.804C131.228 61.004 131.06 60.316 130.724 59.74C130.404 59.148 129.972 58.7 129.428 58.396C128.9 58.092 128.324 57.94 127.7 57.94C127.092 57.94 126.516 58.1 125.972 58.42C125.444 58.724 125.012 59.172 124.676 59.764C124.356 60.356 124.196 61.052 124.196 61.852C124.196 62.652 124.356 63.348 124.676 63.94C125.012 64.532 125.444 64.988 125.972 65.308C126.516 65.612 127.092 65.764 127.7 65.764C128.324 65.764 128.9 65.604 129.428 65.284C129.972 64.964 130.404 64.508 130.724 63.916C131.06 63.324 131.228 62.62 131.228 61.804ZM140.461 57.124C140.893 56.516 141.485 56.012 142.237 55.612C143.005 55.196 143.877 54.988 144.853 54.988C145.989 54.988 147.013 55.268 147.925 55.828C148.853 56.388 149.581 57.188 150.109 58.228C150.653 59.252 150.925 60.444 150.925 61.804C150.925 63.164 150.653 64.372 150.109 65.428C149.581 66.468 148.853 67.276 147.925 67.852C147.013 68.428 145.989 68.716 144.853 68.716C143.877 68.716 143.013 68.516 142.261 68.116C141.525 67.716 140.925 67.212 140.461 66.604V74.836H137.101V55.204H140.461V57.124ZM147.493 61.804C147.493 61.004 147.325 60.316 146.989 59.74C146.669 59.148 146.237 58.7 145.693 58.396C145.165 58.092 144.589 57.94 143.965 57.94C143.357 57.94 142.781 58.1 142.237 58.42C141.709 58.724 141.277 59.172 140.941 59.764C140.621 60.356 140.461 61.052 140.461 61.852C140.461 62.652 140.621 63.348 140.941 63.94C141.277 64.532 141.709 64.988 142.237 65.308C142.781 65.612 143.357 65.764 143.965 65.764C144.589 65.764 145.165 65.604 145.693 65.284C146.237 64.964 146.669 64.508 146.989 63.916C147.325 63.324 147.493 62.62 147.493 61.804ZM158.455 68.716C157.367 68.716 156.391 68.524 155.527 68.14C154.663 67.74 153.975 67.204 153.463 66.532C152.967 65.86 152.695 65.116 152.647 64.3H156.031C156.095 64.812 156.343 65.236 156.775 65.572C157.223 65.908 157.775 66.076 158.431 66.076C159.071 66.076 159.567 65.948 159.919 65.692C160.287 65.436 160.471 65.108 160.471 64.708C160.471 64.276 160.247 63.956 159.799 63.748C159.367 63.524 158.671 63.284 157.711 63.028C156.719 62.788 155.903 62.54 155.263 62.284C154.639 62.028 154.095 61.636 153.631 61.108C153.183 60.58 152.959 59.868 152.959 58.972C152.959 58.236 153.167 57.564 153.583 56.956C154.015 56.348 154.623 55.868 155.407 55.516C156.207 55.164 157.143 54.988 158.215 54.988C159.799 54.988 161.063 55.388 162.007 56.188C162.951 56.972 163.471 58.036 163.567 59.38H160.351C160.303 58.852 160.079 58.436 159.679 58.132C159.295 57.812 158.775 57.652 158.119 57.652C157.511 57.652 157.039 57.764 156.703 57.988C156.383 58.212 156.223 58.524 156.223 58.924C156.223 59.372 156.447 59.716 156.895 59.956C157.343 60.18 158.039 60.412 158.983 60.652C159.943 60.892 160.735 61.14 161.359 61.396C161.983 61.652 162.519 62.052 162.967 62.596C163.431 63.124 163.671 63.828 163.687 64.708C163.687 65.476 163.471 66.164 163.039 66.772C162.623 67.38 162.015 67.86 161.215 68.212C160.431 68.548 159.511 68.716 158.455 68.716ZM177.948 68.668C176.78 68.668 175.724 68.468 174.78 68.068C173.852 67.668 173.116 67.092 172.572 66.34C172.028 65.588 171.748 64.7 171.732 63.676H175.332C175.38 64.364 175.62 64.908 176.052 65.308C176.5 65.708 177.108 65.908 177.876 65.908C178.66 65.908 179.276 65.724 179.724 65.356C180.172 64.972 180.396 64.476 180.396 63.868C180.396 63.372 180.244 62.964 179.94 62.644C179.636 62.324 179.252 62.076 178.788 61.9C178.34 61.708 177.716 61.5 176.916 61.276C175.828 60.956 174.94 60.644 174.252 60.34C173.58 60.02 172.996 59.548 172.5 58.924C172.02 58.284 171.78 57.436 171.78 56.38C171.78 55.388 172.028 54.524 172.524 53.788C173.02 53.052 173.716 52.492 174.612 52.108C175.508 51.708 176.532 51.508 177.684 51.508C179.412 51.508 180.812 51.932 181.884 52.78C182.972 53.612 183.572 54.78 183.684 56.284H179.988C179.956 55.708 179.708 55.236 179.244 54.868C178.796 54.484 178.196 54.292 177.444 54.292C176.788 54.292 176.26 54.46 175.86 54.796C175.476 55.132 175.284 55.62 175.284 56.26C175.284 56.708 175.428 57.084 175.716 57.388C176.02 57.676 176.388 57.916 176.82 58.108C177.268 58.284 177.892 58.492 178.692 58.732C179.78 59.052 180.668 59.372 181.356 59.692C182.044 60.012 182.636 60.492 183.132 61.132C183.628 61.772 183.876 62.612 183.876 63.652C183.876 64.548 183.644 65.38 183.18 66.148C182.716 66.916 182.036 67.532 181.14 67.996C180.244 68.444 179.18 68.668 177.948 68.668ZM190.701 57.964V64.396C190.701 64.844 190.805 65.172 191.013 65.38C191.237 65.572 191.605 65.668 192.117 65.668H193.677V68.5H191.565C188.733 68.5 187.317 67.124 187.317 64.372V57.964H185.733V55.204H187.317V51.916H190.701V55.204H193.677V57.964H190.701ZM201.998 68.716C200.718 68.716 199.566 68.436 198.542 67.876C197.518 67.3 196.71 66.492 196.118 65.452C195.542 64.412 195.254 63.212 195.254 61.852C195.254 60.492 195.55 59.292 196.142 58.252C196.75 57.212 197.574 56.412 198.614 55.852C199.654 55.276 200.814 54.988 202.094 54.988C203.374 54.988 204.534 55.276 205.574 55.852C206.614 56.412 207.43 57.212 208.022 58.252C208.63 59.292 208.934 60.492 208.934 61.852C208.934 63.212 208.622 64.412 207.997 65.452C207.39 66.492 206.558 67.3 205.502 67.876C204.462 68.436 203.294 68.716 201.998 68.716ZM201.998 65.788C202.606 65.788 203.174 65.644 203.702 65.356C204.246 65.052 204.678 64.604 204.998 64.012C205.318 63.42 205.478 62.7 205.478 61.852C205.478 60.588 205.142 59.62 204.47 58.948C203.814 58.26 203.006 57.916 202.046 57.916C201.086 57.916 200.278 58.26 199.622 58.948C198.982 59.62 198.662 60.588 198.662 61.852C198.662 63.116 198.974 64.092 199.598 64.78C200.238 65.452 201.038 65.788 201.998 65.788ZM214.758 57.268C215.19 56.564 215.75 56.012 216.438 55.612C217.142 55.212 217.942 55.012 218.838 55.012V58.54H217.95C216.894 58.54 216.094 58.788 215.55 59.284C215.022 59.78 214.758 60.644 214.758 61.876V68.5H211.398V55.204H214.758V57.268ZM233.461 61.564C233.461 62.044 233.429 62.476 233.365 62.86H223.645C223.725 63.82 224.061 64.572 224.653 65.116C225.245 65.66 225.973 65.932 226.837 65.932C228.085 65.932 228.973 65.396 229.501 64.324H233.125C232.741 65.604 232.005 66.66 230.917 67.492C229.829 68.308 228.493 68.716 226.909 68.716C225.629 68.716 224.477 68.436 223.453 67.876C222.445 67.3 221.653 66.492 221.077 65.452C220.517 64.412 220.237 63.212 220.237 61.852C220.237 60.476 220.517 59.268 221.077 58.228C221.637 57.188 222.421 56.388 223.429 55.828C224.437 55.268 225.597 54.988 226.909 54.988C228.173 54.988 229.301 55.26 230.293 55.804C231.301 56.348 232.077 57.124 232.621 58.132C233.181 59.124 233.461 60.268 233.461 61.564ZM229.981 60.604C229.965 59.74 229.653 59.052 229.045 58.54C228.437 58.012 227.693 57.748 226.813 57.748C225.981 57.748 225.277 58.004 224.701 58.516C224.141 59.012 223.797 59.708 223.669 60.604H229.981Z" fill="white"/>
</g>
<defs>
<filter id="filter0_d_302_4243" x="0" y="0" width="273" height="112" filterUnits="userSpaceOnUse" color-interpolation-filters="sRGB">
<feFlood flood-opacity="0" result="BackgroundImageFix"/>
<feColorMatrix in="SourceAlpha" type="matrix" values="0 0 0 0 0 0 0 0 0 0 0 0 0 0 0 0 0 0 127 0" result="hardAlpha"/>
<feOffset dy="4"/>
<feGaussianBlur stdDeviation="8"/>
<feComposite in2="hardAlpha" operator="out"/>
<feColorMatrix type="matrix" values="0 0 0 0 0 0 0 0 0 0 0 0 0 0 0 0 0 0 0.08 0"/>
<feBlend mode="normal" in2="BackgroundImageFix" result="effect1_dropShadow_302_4243"/>
<feBlend mode="normal" in="SourceGraphic" in2="effect1_dropShadow_302_4243" result="shape"/>
</filter>
</defs>
</svg>
