<svg width="27" height="26" viewBox="0 0 27 26" fill="none" xmlns="http://www.w3.org/2000/svg">
<path fill-rule="evenodd" clip-rule="evenodd" d="M21.749 21.2481C18.1835 24.814 12.9038 25.5844 8.58322 23.5863C7.94539 23.3295 7.42246 23.1219 6.92533 23.1219C5.54063 23.1301 3.81709 24.4728 2.92132 23.5781C2.02554 22.6822 3.3692 20.9573 3.3692 19.5642C3.3692 19.067 3.16988 18.5534 2.91311 17.9144C0.914033 13.5945 1.68552 8.31305 5.25103 4.74833C9.8026 0.195089 17.1974 0.195089 21.749 4.74715C26.3088 9.30743 26.3005 16.696 21.749 21.2481Z" stroke="#EF3434" stroke-width="2" stroke-linecap="round" stroke-linejoin="round"/>
<path d="M18.095 13.4817H18.1055" stroke="#EF3434" stroke-width="2" stroke-linecap="round" stroke-linejoin="round"/>
<path d="M13.418 13.4817H13.4285" stroke="#EF3434" stroke-width="2" stroke-linecap="round" stroke-linejoin="round"/>
<path d="M8.74078 13.4817H8.75128" stroke="#EF3434" stroke-width="2" stroke-linecap="round" stroke-linejoin="round"/>
</svg>
