<svg width="38" height="38" viewBox="0 0 38 38" fill="none" xmlns="http://www.w3.org/2000/svg">
<path fill-rule="evenodd" clip-rule="evenodd" d="M30.7843 30.783C25.6907 35.8772 18.1483 36.9777 11.9761 34.1233C11.0649 33.7564 10.3178 33.4599 9.60765 33.4599C7.62951 33.4716 5.16731 35.3897 3.88763 34.1116C2.60795 32.8317 4.52747 30.3676 4.52747 28.3775C4.52747 27.6672 4.24272 26.9335 3.87591 26.0206C1.02008 19.8493 2.12221 12.3044 7.2158 7.21193C13.718 0.707305 24.2821 0.707306 30.7843 7.21025C37.2983 13.7249 37.2865 24.2801 30.7843 30.783Z" stroke="white" stroke-width="3" stroke-linecap="round" stroke-linejoin="round"/>
<path opacity="0.4" d="M25.5645 19.6882H25.5795" stroke="white" stroke-width="3" stroke-linecap="round" stroke-linejoin="round"/>
<path opacity="0.4" d="M18.8828 19.6882H18.8978" stroke="white" stroke-width="3" stroke-linecap="round" stroke-linejoin="round"/>
<path opacity="0.4" d="M12.2012 19.6882H12.2162" stroke="white" stroke-width="3" stroke-linecap="round" stroke-linejoin="round"/>
</svg>
