<svg width="29" height="28" viewBox="0 0 29 28" fill="none" xmlns="http://www.w3.org/2000/svg">
<g clip-path="url(#clip0_3793_12879)">
<path d="M20.1814 16.7945V16.1059C20.1814 13.3373 24.5819 13.3373 24.5819 16.1059V16.8464C24.5583 18.2708 23.549 19.3981 22.3416 19.3745C21.1436 19.3509 20.1861 18.2 20.1861 16.7898L20.1814 16.7945ZM23.5726 19.6858L23.2754 19.5584C23.1292 19.6716 22.8179 20.0018 22.6717 20.1433V22.4072L22.3887 22.6902L22.1057 22.4072V20.148C21.9548 19.9971 21.6435 19.681 21.4879 19.5631C20.8794 19.8131 20.6908 19.8744 20.0776 20.0254C19.356 20.1999 18.8183 20.3319 18.7617 21.1479L18.5636 24.0722H26.195L25.9969 21.1479C25.9167 19.9829 24.813 20.2093 23.5679 19.6858H23.5726ZM3.48473 6.49824V5.80962C3.48473 3.041 7.88528 3.041 7.88528 5.80962V6.55012C7.8617 7.97453 6.85235 9.10179 5.64491 9.0782C4.44691 9.05462 3.48944 7.90378 3.48944 6.49352L3.48473 6.49824ZM6.87594 9.39421L6.57879 9.26687C6.43258 9.38006 6.12129 9.71022 5.97507 9.85172V12.1157L5.69208 12.3987L5.40909 12.1157V9.85644C5.25815 9.70551 4.94686 9.3895 4.79121 9.27158C4.18278 9.52156 3.99411 9.58288 3.38096 9.73381C2.65933 9.90832 2.12164 10.0404 2.06504 10.8563L1.86694 13.7806H9.49835L9.30025 10.8563C9.22007 9.69136 8.11639 9.91775 6.87122 9.39421H6.87594Z" fill="#EF3434"/>
<path fill-rule="evenodd" clip-rule="evenodd" d="M15.2715 21.912C15.6724 21.8129 16.0827 22.0629 16.1818 22.4685C16.2808 22.8694 16.0308 23.2798 15.6252 23.3788C15.2479 23.4684 15.8045 23.3552 15.4177 23.3977C11.0454 23.9212 6.85713 21.4262 5.24878 17.318L6.60715 16.6719C6.6213 16.7002 6.63545 16.7285 6.6496 16.7615C8.00797 20.2376 11.5454 22.3459 15.2385 21.9025C15.5639 21.8648 14.9508 21.9922 15.2668 21.9167L15.2715 21.912Z" fill="#EF3434"/>
<path fill-rule="evenodd" clip-rule="evenodd" d="M15.0215 24.605V20.6855L16.9789 22.6429L15.0215 24.605Z" fill="#EF3434"/>
<path fill-rule="evenodd" clip-rule="evenodd" d="M12.8235 6.09734C12.4273 6.22469 12.0028 6.00301 11.8755 5.60682C11.7482 5.21063 11.9698 4.78614 12.3613 4.65879C12.7292 4.54088 12.1868 4.69652 12.5641 4.62577C16.8892 3.78622 21.2426 5.97471 23.1481 9.95549L21.8369 10.696C21.818 10.6677 21.8039 10.6394 21.7897 10.6111C20.1861 7.24347 16.5025 5.39457 12.8518 6.10678C12.5311 6.16809 13.1348 5.99829 12.8235 6.09734Z" fill="#EF3434"/>
<path fill-rule="evenodd" clip-rule="evenodd" d="M12.8755 3.39478L13.1585 7.30481L11.0643 5.48893L12.8755 3.39478Z" fill="#EF3434"/>
</g>
<defs>
<clipPath id="clip0_3793_12879">
<rect width="28" height="28" fill="white" transform="translate(0.5)"/>
</clipPath>
</defs>
</svg>
