<svg width="116" height="116" viewBox="0 0 116 116" fill="none" xmlns="http://www.w3.org/2000/svg">
<g filter="url(#filter0_d_3671_12850)">
<circle cx="58.0013" cy="50.0001" r="33.3333" fill="#EF3434"/>
</g>
<path d="M66.7831 53.9923V53.0086C66.7831 49.0534 73.0696 49.0534 73.0696 53.0086V54.0664C73.0359 56.1013 71.594 57.7117 69.8691 57.678C68.1576 57.6443 66.7898 56.0002 66.7898 53.9856L66.7831 53.9923ZM71.6277 58.1227L71.2032 57.9408C70.9943 58.1025 70.5496 58.5741 70.3407 58.7763V62.0105L69.9365 62.4148L69.5322 62.0105V58.783C69.3166 58.5674 68.8719 58.116 68.6495 57.9475C67.7803 58.3046 67.5108 58.3922 66.6349 58.6078C65.604 58.8571 64.8358 59.0458 64.755 60.2115L64.472 64.389H75.374L75.091 60.2115C74.9764 58.5472 73.3998 58.8706 71.6209 58.1227H71.6277ZM42.9307 39.2834V38.2996C42.9307 34.3445 49.2173 34.3445 49.2173 38.2996V39.3575C49.1836 41.3924 47.7416 43.0027 46.0167 42.969C44.3053 42.9353 42.9375 41.2913 42.9375 39.2766L42.9307 39.2834ZM47.7753 43.4205L47.3508 43.2386C47.142 43.4003 46.6973 43.8719 46.4884 44.0741V47.3083L46.0841 47.7126L45.6798 47.3083V44.0808C45.4642 43.8652 45.0195 43.4137 44.7972 43.2453C43.928 43.6024 43.6584 43.69 42.7825 43.9056C41.7516 44.1549 40.9835 44.3436 40.9026 45.5092L40.6196 49.6868H51.5216L51.2386 45.5092C51.1241 43.845 49.5474 44.1684 47.7686 43.4205H47.7753Z" fill="white"/>
<path fill-rule="evenodd" clip-rule="evenodd" d="M59.7688 61.303C60.3416 61.1615 60.9278 61.5186 61.0693 62.0981C61.2108 62.6708 60.8536 63.257 60.2742 63.3985C59.7351 63.5265 60.5302 63.3648 59.9777 63.4255C53.7316 64.1734 47.7483 60.609 45.4507 54.7402L47.3912 53.8171C47.4114 53.8576 47.4316 53.898 47.4519 53.9452C49.3924 58.911 54.4458 61.9229 59.7217 61.2895C60.1866 61.2356 59.3107 61.4175 59.7621 61.3097L59.7688 61.303Z" fill="white"/>
<path fill-rule="evenodd" clip-rule="evenodd" d="M59.4116 65.1503V59.551L62.2079 62.3473L59.4116 65.1503Z" fill="white"/>
<path fill-rule="evenodd" clip-rule="evenodd" d="M56.2715 38.7106C55.7055 38.8925 55.0991 38.5758 54.9172 38.0098C54.7353 37.4438 55.0519 36.8374 55.6112 36.6555C56.1368 36.487 55.3619 36.7094 55.9009 36.6083C62.0796 35.409 68.2988 38.5354 71.0209 44.2222L69.1477 45.2801C69.1208 45.2396 69.1006 45.1992 69.0804 45.1588C66.7895 40.3479 61.5271 37.7066 56.3119 38.724C55.8538 38.8116 56.7162 38.5691 56.2715 38.7106Z" fill="white"/>
<path fill-rule="evenodd" clip-rule="evenodd" d="M56.3457 34.8496L56.75 40.4354L53.7583 37.8413L56.3457 34.8496Z" fill="white"/>
<defs>
<filter id="filter0_d_3671_12850" x="0.667969" y="0.666748" width="114.667" height="114.667" filterUnits="userSpaceOnUse" color-interpolation-filters="sRGB">
<feFlood flood-opacity="0" result="BackgroundImageFix"/>
<feColorMatrix in="SourceAlpha" type="matrix" values="0 0 0 0 0 0 0 0 0 0 0 0 0 0 0 0 0 0 127 0" result="hardAlpha"/>
<feOffset dy="8"/>
<feGaussianBlur stdDeviation="12"/>
<feComposite in2="hardAlpha" operator="out"/>
<feColorMatrix type="matrix" values="0 0 0 0 0.756377 0 0 0 0 0.0854755 0 0 0 0 0.0854756 0 0 0 0.24 0"/>
<feBlend mode="normal" in2="BackgroundImageFix" result="effect1_dropShadow_3671_12850"/>
<feBlend mode="normal" in="SourceGraphic" in2="effect1_dropShadow_3671_12850" result="shape"/>
</filter>
</defs>
</svg>
