<svg width="46" height="46" viewBox="0 0 46 46" fill="none" xmlns="http://www.w3.org/2000/svg">
<path d="M31.7831 26.9923V26.0086C31.7831 22.0534 38.0696 22.0534 38.0696 26.0086V27.0664C38.0359 29.1013 36.594 30.7117 34.8691 30.678C33.1576 30.6443 31.7898 29.0002 31.7898 26.9856L31.7831 26.9923ZM36.6277 31.1227L36.2032 30.9408C35.9943 31.1025 35.5496 31.5741 35.3407 31.7763V35.0105L34.9365 35.4148L34.5322 35.0105V31.783C34.3166 31.5674 33.8719 31.116 33.6495 30.9475C32.7803 31.3046 32.5108 31.3922 31.6349 31.6078C30.604 31.8571 29.8358 32.0458 29.755 33.2115L29.472 37.389H40.374L40.091 33.2115C39.9764 31.5472 38.3998 31.8706 36.6209 31.1227H36.6277ZM7.93075 12.2834V11.2996C7.93075 7.34446 14.2173 7.34446 14.2173 11.2996V12.3575C14.1836 14.3924 12.7416 16.0027 11.0167 15.969C9.30529 15.9353 7.93748 14.2913 7.93748 12.2766L7.93075 12.2834ZM12.7753 16.4205L12.3508 16.2386C12.142 16.4003 11.6973 16.8719 11.4884 17.0741V20.3083L11.0841 20.7126L10.6798 20.3083V17.0808C10.4642 16.8652 10.0195 16.4137 9.79716 16.2453C8.92796 16.6024 8.65845 16.69 7.78251 16.9056C6.7516 17.1549 5.98348 17.3436 5.90262 18.5092L5.61963 22.6868H16.5216L16.2386 18.5092C16.1241 16.845 14.5474 17.1684 12.7686 16.4205H12.7753Z" fill="white"/>
<path fill-rule="evenodd" clip-rule="evenodd" d="M24.7688 34.303C25.3416 34.1615 25.9278 34.5186 26.0693 35.0981C26.2108 35.6708 25.8536 36.257 25.2742 36.3985C24.7351 36.5265 25.5302 36.3648 24.9777 36.4255C18.7316 37.1734 12.7483 33.609 10.4507 27.7402L12.3912 26.8171C12.4114 26.8576 12.4316 26.898 12.4519 26.9452C14.3924 31.911 19.4458 34.9229 24.7217 34.2895C25.1866 34.2356 24.3107 34.4175 24.7621 34.3097L24.7688 34.303Z" fill="white"/>
<path fill-rule="evenodd" clip-rule="evenodd" d="M24.4116 38.1503V32.551L27.2079 35.3473L24.4116 38.1503Z" fill="white"/>
<path fill-rule="evenodd" clip-rule="evenodd" d="M21.2715 11.7106C20.7055 11.8925 20.0991 11.5758 19.9172 11.0098C19.7353 10.4438 20.0519 9.83741 20.6112 9.65548C21.1368 9.48703 20.3619 9.70939 20.9009 9.60832C27.0796 8.40896 33.2988 11.5354 36.0209 17.2222L34.1477 18.2801C34.1208 18.2396 34.1006 18.1992 34.0804 18.1588C31.7895 13.3479 26.5271 10.7066 21.3119 11.724C20.8538 11.8116 21.7162 11.5691 21.2715 11.7106Z" fill="white"/>
<path fill-rule="evenodd" clip-rule="evenodd" d="M21.3457 7.84961L21.75 13.4354L18.7583 10.8413L21.3457 7.84961Z" fill="white"/>
</svg>
