<svg width="42" height="45" viewBox="0 0 42 45" fill="none" xmlns="http://www.w3.org/2000/svg">
<path fill-rule="evenodd" clip-rule="evenodd" d="M11.2752 10.5337C11.4591 10.7742 11.746 10.9335 12.0529 10.9392L12.2849 10.9405C12.5202 11.0417 12.7797 11.0978 13.0523 11.0978H13.1166C10.0558 13.392 8.07142 17.0504 8.07142 21.1636C8.07142 26.7909 11.7852 31.5668 16.8892 33.1645C16.5741 33.526 16.2413 33.9783 16.0194 34.4734C10.4788 32.5681 6.4873 27.302 6.4873 21.1204C6.4873 16.9078 8.34125 13.1203 11.2752 10.5337ZM17.7536 30.6464C13.6536 29.4229 10.6575 25.6153 10.6575 21.1206C10.6575 15.6391 15.1142 11.1798 20.5919 11.1798C26.069 11.1798 30.5252 15.6391 30.5252 21.1206C30.5252 24.4035 28.927 27.3199 26.4679 29.1297C26.275 28.754 25.5565 28.3248 24.812 28.2099C27.2327 26.7566 28.8554 24.1044 28.8554 21.0802C28.8554 16.4981 25.1296 12.7695 20.5501 12.7695C15.9695 12.7695 12.2435 16.4981 12.2435 21.0802C12.2435 24.6821 14.5456 27.7564 17.7536 28.9052V30.6464ZM30.4747 11.0618C33.0786 13.623 34.6953 17.1863 34.6953 21.1204C34.6953 24.6263 33.4116 27.8377 31.2893 30.3084C30.6485 29.9779 30.0463 29.8944 29.6696 29.881C31.8515 27.6205 33.1931 24.5458 33.1931 21.1636C33.1931 17.0504 31.2087 13.392 28.1483 11.0978H30.1056C30.2323 11.0978 30.3561 11.0856 30.4747 11.0618ZM17.7536 26.4185C15.8678 25.4032 14.5836 23.4093 14.5836 21.1207C14.5836 17.8056 17.2789 15.1088 20.5917 15.1088C23.9041 15.1088 26.5992 17.8056 26.5992 21.1207C26.5992 23.3142 25.4195 25.237 23.6623 26.2857C23.6624 25.7167 23.6584 25.0828 23.6529 24.4512C24.5416 23.6337 25.0987 22.462 25.0987 21.1625C25.0987 18.6986 23.0954 16.6937 20.6334 16.6937C18.1707 16.6937 16.1676 18.6986 16.1676 21.1625C16.1676 22.5293 16.7838 23.7549 17.7536 24.5745V26.4185Z" fill="white"/>
<path fill-rule="evenodd" clip-rule="evenodd" d="M36.6032 11.0457C38.4623 13.9729 39.5394 17.4438 39.5394 21.1618C39.5394 31.5951 31.0589 40.0827 20.636 40.0827C10.2117 40.0827 1.73047 31.5951 1.73047 21.1618C1.73047 17.5021 2.77423 14.0818 4.57965 11.1855L4.76938 11.1952H6.51262C4.49838 14.037 3.3139 17.5057 3.3139 21.2458C3.3139 30.8482 11.1201 38.661 20.7171 38.661C30.3117 38.661 38.1179 30.8482 38.1179 21.2458C38.1179 17.5057 36.9335 14.037 34.9193 11.1952H35.8552C36.12 11.1952 36.3726 11.1422 36.6032 11.0457ZM9.56517 5.83553C12.6793 3.57523 16.5051 2.24243 20.636 2.24243C24.7664 2.24243 28.5918 3.57523 31.7056 5.83553H28.8136C26.3952 4.55594 23.6391 3.83132 20.7171 3.83132C17.7943 3.83132 15.0377 4.55594 12.619 5.83553H9.56517Z" fill="#FFFCFC" fill-opacity="0.38"/>
<path fill-rule="evenodd" clip-rule="evenodd" d="M28.4091 42.8886H20.778C20.1849 42.8886 18.0256 39.2571 17.8022 38.4399C17.6689 38.2577 17.561 38.0292 17.4719 37.7517C17.137 36.7082 17.3572 34.7189 17.3572 34.7189C17.3293 33.9813 18.0552 33.326 19.0169 33.1817V22.6947C19.0169 21.8837 19.6739 21.2261 20.4845 21.2261H20.8514C21.6619 21.2261 22.3189 21.8837 22.3189 22.6947V29.3532C22.3581 29.525 22.471 29.8062 22.7708 29.749C22.9898 29.4677 23.311 29.2833 23.6797 29.2509L23.7712 29.2429C24.432 29.185 25.0272 29.6348 25.2121 30.2846C25.3333 30.355 25.5149 30.4069 25.7708 30.3568C25.9815 30.1306 26.2712 29.9822 26.5983 29.9536L26.6898 29.9456C27.3151 29.8908 27.8818 30.2908 28.0945 30.8892C28.1848 30.9505 28.3312 31.0134 28.5332 31.0076C28.7168 30.8674 28.9383 30.7806 29.1802 30.7595L29.2718 30.7515C30.0294 30.6851 30.7009 31.2863 30.7716 32.0943L30.8922 33.474L30.904 33.4893C30.904 33.4893 30.8313 36.5277 30.317 38.1889C30.048 39.0576 29.0406 42.4873 28.4091 42.8886Z" fill="url(#paint0_linear_3671_12887)"/>
<path d="M6.67546 6.92219C6.67546 6.72047 6.51428 6.5591 6.32426 6.5591H4.38358C4.13012 6.5591 3.92285 6.76656 3.92285 7.02012V10.0342C3.92285 10.2532 4.10713 10.4376 4.32599 10.4376C4.55626 10.4376 4.74054 10.2532 4.74054 10.0342V8.81248H6.28391C6.47394 8.81248 6.63521 8.65111 6.63521 8.45514C6.63521 8.25342 6.47394 8.09205 6.28391 8.09205H4.74054V7.27943H6.32426C6.51428 7.27943 6.67546 7.11816 6.67546 6.92219ZM10.6432 7.79815C10.6432 7.08356 10.1538 6.5591 9.35333 6.5591H8.01732C7.76385 6.5591 7.55658 6.76656 7.55658 7.02012V10.0342C7.55658 10.2532 7.74086 10.4376 7.95972 10.4376C8.19009 10.4376 8.37436 10.2532 8.37436 10.0342V9.0372H8.97318L9.62969 10.2302C9.70462 10.3627 9.83706 10.4376 9.98099 10.4376C10.2229 10.4376 10.3841 10.2302 10.3841 10.0342C10.3841 9.97084 10.3669 9.90165 10.3323 9.83831L9.80246 8.93926C10.2171 8.84123 10.6432 8.47823 10.6432 7.79815ZM9.23239 7.27943C9.5606 7.27943 9.80821 7.4754 9.80821 7.79815C9.80821 8.12089 9.5606 8.31686 9.23239 8.31686H8.37436V7.27943H9.23239ZM14.3577 10.0342C14.3577 9.84406 14.1964 9.68269 14.0064 9.68269H12.4227V8.81248H13.966C14.156 8.81248 14.3173 8.65111 14.3173 8.45514C14.3173 8.25342 14.156 8.09205 13.966 8.09205H12.4227V7.27943H14.0064C14.1964 7.27943 14.3577 7.11816 14.3577 6.92219C14.3577 6.72047 14.1964 6.5591 14.0064 6.5591H12.0657C11.8122 6.5591 11.605 6.76656 11.605 7.02012V9.942C11.605 10.1956 11.8122 10.403 12.0657 10.403H14.0064C14.1964 10.403 14.3577 10.2417 14.3577 10.0342ZM18.0605 10.0342C18.0605 9.84406 17.8992 9.68269 17.7092 9.68269H16.1256V8.81248H17.6688C17.859 8.81248 18.0201 8.65111 18.0201 8.45514C18.0201 8.25342 17.859 8.09205 17.6688 8.09205H16.1256V7.27943H17.7092C17.8992 7.27943 18.0605 7.11816 18.0605 6.92219C18.0605 6.72047 17.8992 6.5591 17.7092 6.5591H15.7685C15.5151 6.5591 15.3078 6.76656 15.3078 7.02012V9.942C15.3078 10.1956 15.5151 10.403 15.7685 10.403H17.7092C17.8992 10.403 18.0605 10.2417 18.0605 10.0342ZM23.6925 6.92219C23.6925 6.72047 23.5312 6.5591 23.3412 6.5591H20.9168C20.721 6.5591 20.5597 6.72047 20.5597 6.91069C20.5597 7.11816 20.721 7.27943 20.9168 7.27943H21.7172V10.0284C21.7172 10.2532 21.9016 10.4376 22.1261 10.4376C22.3565 10.4376 22.5407 10.2532 22.5407 10.0284V7.27943H23.3412C23.5312 7.27943 23.6925 7.11816 23.6925 6.92219ZM27.6142 7.79815C27.6142 7.08356 27.1247 6.5591 26.3242 6.5591H24.9882C24.7348 6.5591 24.5275 6.76656 24.5275 7.02012V10.0342C24.5275 10.2532 24.7118 10.4376 24.9306 10.4376C25.1609 10.4376 25.3453 10.2532 25.3453 10.0342V9.0372H25.9441L26.6006 10.2302C26.6755 10.3627 26.808 10.4376 26.9519 10.4376C27.1938 10.4376 27.3551 10.2302 27.3551 10.0342C27.3551 9.97084 27.3378 9.90165 27.3032 9.83831L26.7734 8.93926C27.188 8.84123 27.6142 8.47823 27.6142 7.79815ZM26.2033 7.27943C26.5315 7.27943 26.7791 7.4754 26.7791 7.79815C26.7791 8.12089 26.5315 8.31686 26.2033 8.31686H25.3453V7.27943H26.2033ZM29.3937 10.0342V6.92794C29.3937 6.70897 29.2093 6.5245 28.9905 6.5245C28.7602 6.5245 28.5759 6.70897 28.5759 6.92794V10.0342C28.5759 10.2532 28.7602 10.4376 28.979 10.4376C29.2093 10.4376 29.3937 10.2532 29.3937 10.0342ZM33.8969 9.99969C33.8969 9.94775 33.8854 9.89591 33.8682 9.84406L32.7509 6.95678C32.6415 6.67438 32.3478 6.50151 32.0542 6.5245C31.7835 6.5245 31.5244 6.69738 31.4264 6.95678L30.3035 9.84406C30.2804 9.89591 30.2747 9.94775 30.2747 9.99969C30.2747 10.2187 30.4475 10.4376 30.7066 10.4376C30.8851 10.4376 31.0464 10.3339 31.1097 10.1668L31.2652 9.75188H32.9122L33.0619 10.1668C33.1252 10.3339 33.2865 10.4376 33.4593 10.4376C33.7241 10.4376 33.8969 10.2129 33.8969 9.99969ZM32.6876 9.03145H31.4898L32.0887 7.37746L32.6876 9.03145ZM37.26 10.0342C37.26 9.84406 37.0988 9.68269 36.9087 9.68269H35.6015V6.92794C35.6015 6.70897 35.4172 6.5245 35.1984 6.5245C34.9681 6.5245 34.7838 6.70897 34.7838 6.92794V9.942C34.7838 10.1956 34.9911 10.403 35.2444 10.403H36.9087C37.0988 10.403 37.26 10.2417 37.26 10.0342Z" fill="white"/>
<defs>
<linearGradient id="paint0_linear_3671_12887" x1="21.8695" y1="9.0641" x2="21.8695" y2="44.2385" gradientUnits="userSpaceOnUse">
<stop stop-color="white"/>
<stop offset="0.51" stop-color="white"/>
<stop offset="1" stop-color="white"/>
</linearGradient>
</defs>
</svg>
