<svg width="29" height="28" viewBox="0 0 29 28" fill="none" xmlns="http://www.w3.org/2000/svg">
<path fill-rule="evenodd" clip-rule="evenodd" d="M7.2261 5.97363C7.35482 6.14198 7.55564 6.25351 7.77052 6.25747L7.93286 6.25842C8.0976 6.32923 8.27925 6.36852 8.47005 6.36852H8.51507C6.37255 7.97447 4.98345 10.5353 4.98345 13.4146C4.98345 17.3537 7.58313 20.6968 11.1559 21.8152C10.9353 22.0683 10.7024 22.3848 10.547 22.7314C6.6686 21.3977 3.87457 17.7115 3.87457 13.3843C3.87457 10.4355 5.17233 7.78429 7.2261 5.97363ZM11.761 20.0525C8.89099 19.1961 6.7937 16.5308 6.7937 13.3845C6.7937 9.5474 9.91337 6.42589 13.7478 6.42589C17.5817 6.42589 20.7011 9.5474 20.7011 13.3845C20.7011 15.6825 19.5824 17.7239 17.861 18.9908C17.7259 18.7278 17.223 18.4274 16.7018 18.347C18.3963 17.3297 19.5322 15.4731 19.5322 13.3562C19.5322 10.1487 16.9241 7.53872 13.7185 7.53872C10.5121 7.53872 7.90394 10.1487 7.90394 13.3562C7.90394 15.8775 9.51535 18.0295 11.761 18.8337V20.0525ZM20.6657 6.34328C22.4885 8.13614 23.6202 10.6304 23.6202 13.3843C23.6202 15.8385 22.7216 18.0864 21.236 19.8159C20.7874 19.5846 20.3659 19.5261 20.1022 19.5167C21.6295 17.9344 22.5686 15.7821 22.5686 13.4146C22.5686 10.5353 21.1796 7.97447 19.0373 6.36852H20.4074C20.4961 6.36852 20.5827 6.35999 20.6657 6.34328ZM11.761 17.093C10.4409 16.3823 9.54195 14.9865 9.54195 13.3845C9.54195 11.064 11.4287 9.17619 13.7477 9.17619C16.0663 9.17619 17.9529 11.064 17.9529 13.3845C17.9529 14.92 17.1271 16.266 15.8971 17.0001C15.8971 16.6018 15.8943 16.158 15.8905 15.7159C16.5125 15.1436 16.9025 14.3234 16.9025 13.4138C16.9025 11.6891 15.5003 10.2856 13.7768 10.2856C12.053 10.2856 10.6508 11.6891 10.6508 13.4138C10.6508 14.3706 11.0821 15.2285 11.761 15.8022V17.093Z" fill="#EF3434"/>
<path fill-rule="evenodd" clip-rule="evenodd" d="M24.9556 6.33219C26.257 8.38125 27.011 10.8109 27.011 13.4135C27.011 20.7168 21.0746 26.6581 13.7786 26.6581C6.48157 26.6581 0.544678 20.7168 0.544678 13.4135C0.544678 10.8517 1.27531 8.45745 2.5391 6.43008L2.67191 6.43683H3.89218C2.48221 8.42614 1.65308 10.8542 1.65308 13.4723C1.65308 20.194 7.11745 25.6629 13.8353 25.6629C20.5515 25.6629 26.0159 20.194 26.0159 13.4723C26.0159 10.8542 25.1868 8.42614 23.7769 6.43683H24.432C24.6173 6.43683 24.7942 6.39979 24.9556 6.33219ZM6.02897 2.68509C8.20887 1.10288 10.8869 0.169922 13.7786 0.169922C16.6699 0.169922 19.3476 1.10288 21.5273 2.68509H19.5029C17.81 1.78938 15.8807 1.28214 13.8353 1.28214C11.7894 1.28214 9.85977 1.78938 8.16664 2.68509H6.02897Z" fill="#EF3434"/>
<path fill-rule="evenodd" clip-rule="evenodd" d="M19.2197 28.622H13.8779C13.4628 28.622 11.9512 26.08 11.7949 25.508C11.7016 25.3804 11.626 25.2204 11.5636 25.0262C11.3292 24.2957 11.4833 22.9032 11.4833 22.9032C11.4638 22.3869 11.972 21.9282 12.6452 21.8272V14.4863C12.6452 13.9186 13.105 13.4583 13.6724 13.4583H13.9293C14.4966 13.4583 14.9565 13.9186 14.9565 14.4863V19.1473C14.984 19.2675 15.063 19.4643 15.2729 19.4243C15.4261 19.2274 15.651 19.0983 15.9091 19.0756L15.9731 19.07C16.4357 19.0295 16.8524 19.3444 16.9818 19.7992C17.0666 19.8485 17.1938 19.8848 17.3729 19.8498C17.5204 19.6914 17.7232 19.5876 17.9521 19.5675L18.0161 19.5619C18.4539 19.5236 18.8505 19.8035 18.9994 20.2224C19.0627 20.2653 19.1651 20.3094 19.3065 20.3053C19.4351 20.2072 19.5901 20.1464 19.7595 20.1316L19.8235 20.126C20.3539 20.0796 20.8239 20.5004 20.8734 21.066L20.9578 22.0318L20.9661 22.0425C20.9661 22.0425 20.9152 24.1694 20.5552 25.3322C20.3669 25.9403 19.6617 28.3411 19.2197 28.622Z" fill="url(#paint0_linear_3793_12888)"/>
<path d="M4.00605 3.44582C4.00605 3.30462 3.89322 3.19166 3.76021 3.19166H2.40174C2.22431 3.19166 2.07922 3.33689 2.07922 3.51438V5.62422C2.07922 5.77757 2.20822 5.90663 2.36142 5.90663C2.52261 5.90663 2.6516 5.77757 2.6516 5.62422V4.76903H3.73197C3.86498 4.76903 3.97788 4.65607 3.97788 4.51889C3.97788 4.37769 3.86498 4.26473 3.73197 4.26473H2.6516V3.6959H3.76021C3.89322 3.6959 4.00605 3.583 4.00605 3.44582ZM6.7835 4.059C6.7835 3.55879 6.44086 3.19166 5.88056 3.19166H4.94535C4.76793 3.19166 4.62284 3.33689 4.62284 3.51438V5.62422C4.62284 5.77757 4.75183 5.90663 4.90503 5.90663C5.06629 5.90663 5.19528 5.77757 5.19528 5.62422V4.92633H5.61445L6.07401 5.7614C6.12646 5.85417 6.21917 5.90663 6.31992 5.90663C6.48922 5.90663 6.60212 5.7614 6.60212 5.62422C6.60212 5.57988 6.59004 5.53145 6.56583 5.48711L6.19495 4.85778C6.4852 4.78915 6.7835 4.53506 6.7835 4.059ZM5.7959 3.6959C6.02565 3.6959 6.19898 3.83307 6.19898 4.059C6.19898 4.28492 6.02565 4.4221 5.7959 4.4221H5.19528V3.6959H5.7959ZM9.38359 5.62422C9.38359 5.49114 9.2707 5.37818 9.13768 5.37818H8.02914V4.76903H9.10944C9.24246 4.76903 9.35535 4.65607 9.35535 4.51889C9.35535 4.37769 9.24246 4.26473 9.10944 4.26473H8.02914V3.6959H9.13768C9.2707 3.6959 9.38359 3.583 9.38359 3.44582C9.38359 3.30462 9.2707 3.19166 9.13768 3.19166H7.77921C7.60179 3.19166 7.4567 3.33689 7.4567 3.51438V5.55969C7.4567 5.73718 7.60179 5.88241 7.77921 5.88241H9.13768C9.2707 5.88241 9.38359 5.76945 9.38359 5.62422ZM11.9756 5.62422C11.9756 5.49114 11.8627 5.37818 11.7297 5.37818H10.6211V4.76903H11.7014C11.8345 4.76903 11.9473 4.65607 11.9473 4.51889C11.9473 4.37769 11.8345 4.26473 11.7014 4.26473H10.6211V3.6959H11.7297C11.8627 3.6959 11.9756 3.583 11.9756 3.44582C11.9756 3.30462 11.8627 3.19166 11.7297 3.19166H10.3712C10.1938 3.19166 10.0487 3.33689 10.0487 3.51438V5.55969C10.0487 5.73718 10.1938 5.88241 10.3712 5.88241H11.7297C11.8627 5.88241 11.9756 5.76945 11.9756 5.62422ZM15.918 3.44582C15.918 3.30462 15.8051 3.19166 15.6721 3.19166H13.975C13.8379 3.19166 13.725 3.30462 13.725 3.43778C13.725 3.583 13.8379 3.6959 13.975 3.6959H14.5353V5.6202C14.5353 5.77757 14.6643 5.90663 14.8215 5.90663C14.9828 5.90663 15.1117 5.77757 15.1117 5.6202V3.6959H15.6721C15.8051 3.6959 15.918 3.583 15.918 3.44582ZM18.6631 4.059C18.6631 3.55879 18.3205 3.19166 17.7602 3.19166H16.825C16.6476 3.19166 16.5025 3.33689 16.5025 3.51438V5.62422C16.5025 5.77757 16.6315 5.90663 16.7847 5.90663C16.9459 5.90663 17.0749 5.77757 17.0749 5.62422V4.92633H17.4941L17.9537 5.7614C18.0061 5.85417 18.0988 5.90663 18.1996 5.90663C18.3689 5.90663 18.4818 5.7614 18.4818 5.62422C18.4818 5.57988 18.4697 5.53145 18.4455 5.48711L18.0746 4.85778C18.3648 4.78915 18.6631 4.53506 18.6631 4.059ZM17.6755 3.6959C17.9053 3.6959 18.0786 3.83307 18.0786 4.059C18.0786 4.28492 17.9053 4.4221 17.6755 4.4221H17.0749V3.6959H17.6755ZM19.9088 5.62422V3.44985C19.9088 3.29657 19.7797 3.16745 19.6266 3.16745C19.4653 3.16745 19.3363 3.29657 19.3363 3.44985V5.62422C19.3363 5.77757 19.4653 5.90663 19.6185 5.90663C19.7797 5.90663 19.9088 5.77757 19.9088 5.62422ZM23.0611 5.60007C23.0611 5.56372 23.053 5.52743 23.0409 5.49114L22.2589 3.47004C22.1823 3.27236 21.9767 3.15135 21.7712 3.16745C21.5817 3.16745 21.4003 3.28846 21.3317 3.47004L20.5457 5.49114C20.5295 5.52743 20.5255 5.56372 20.5255 5.60007C20.5255 5.75335 20.6465 5.90663 20.8278 5.90663C20.9528 5.90663 21.0657 5.83405 21.11 5.71706L21.2189 5.42661H22.3718L22.4765 5.71706C22.5209 5.83405 22.6338 5.90663 22.7547 5.90663C22.9401 5.90663 23.0611 5.74933 23.0611 5.60007ZM22.2145 4.92231H21.3761L21.7953 3.76452L22.2145 4.92231ZM25.4153 5.62422C25.4153 5.49114 25.3024 5.37818 25.1693 5.37818H24.2543V3.44985C24.2543 3.29657 24.1253 3.16745 23.9721 3.16745C23.8109 3.16745 23.6819 3.29657 23.6819 3.44985V5.55969C23.6819 5.73718 23.827 5.88241 24.0043 5.88241H25.1693C25.3024 5.88241 25.4153 5.76945 25.4153 5.62422Z" fill="#EF3434"/>
<defs>
<linearGradient id="paint0_linear_3793_12888" x1="14.642" y1="4.94487" x2="14.642" y2="29.5669" gradientUnits="userSpaceOnUse">
<stop stop-color="#8F1F1F"/>
<stop offset="0.51" stop-color="#A72424"/>
<stop offset="1" stop-color="#EF3434"/>
</linearGradient>
</defs>
</svg>
