<svg width="116" height="116" viewBox="0 0 116 116" fill="none" xmlns="http://www.w3.org/2000/svg">
<g filter="url(#filter0_d_3671_12885)">
<circle cx="58.0013" cy="50.0001" r="33.3333" fill="#EF3434"/>
</g>
<path fill-rule="evenodd" clip-rule="evenodd" d="M48.2752 38.5337C48.4591 38.7742 48.746 38.9335 49.0529 38.9392L49.2849 38.9405C49.5202 39.0417 49.7797 39.0978 50.0523 39.0978H50.1166C47.0558 41.392 45.0714 45.0504 45.0714 49.1636C45.0714 54.7909 48.7852 59.5668 53.8892 61.1645C53.5741 61.526 53.2413 61.9783 53.0194 62.4734C47.4788 60.5681 43.4873 55.302 43.4873 49.1204C43.4873 44.9078 45.3412 41.1203 48.2752 38.5337ZM54.7536 58.6464C50.6536 57.4229 47.6575 53.6153 47.6575 49.1206C47.6575 43.6391 52.1142 39.1798 57.5919 39.1798C63.069 39.1798 67.5252 43.6391 67.5252 49.1206C67.5252 52.4035 65.927 55.3199 63.4679 57.1297C63.275 56.754 62.5565 56.3248 61.812 56.2099C64.2327 54.7566 65.8554 52.1044 65.8554 49.0802C65.8554 44.4981 62.1296 40.7695 57.5501 40.7695C52.9695 40.7695 49.2435 44.4981 49.2435 49.0802C49.2435 52.6821 51.5456 55.7564 54.7536 56.9052V58.6464ZM67.4747 39.0618C70.0786 41.623 71.6953 45.1863 71.6953 49.1204C71.6953 52.6263 70.4116 55.8377 68.2893 58.3084C67.6485 57.9779 67.0463 57.8944 66.6696 57.881C68.8515 55.6205 70.1931 52.5458 70.1931 49.1636C70.1931 45.0504 68.2087 41.392 65.1483 39.0978H67.1056C67.2323 39.0978 67.3561 39.0856 67.4747 39.0618ZM54.7536 54.4185C52.8678 53.4032 51.5836 51.4093 51.5836 49.1207C51.5836 45.8056 54.2789 43.1088 57.5917 43.1088C60.9041 43.1088 63.5992 45.8056 63.5992 49.1207C63.5992 51.3142 62.4195 53.237 60.6623 54.2857C60.6624 53.7167 60.6584 53.0828 60.6529 52.4512C61.5416 51.6337 62.0987 50.462 62.0987 49.1625C62.0987 46.6986 60.0954 44.6937 57.6334 44.6937C55.1707 44.6937 53.1676 46.6986 53.1676 49.1625C53.1676 50.5293 53.7838 51.7549 54.7536 52.5745V54.4185Z" fill="white"/>
<path fill-rule="evenodd" clip-rule="evenodd" d="M73.6032 39.0457C75.4623 41.9729 76.5394 45.4438 76.5394 49.1618C76.5394 59.5951 68.0589 68.0827 57.636 68.0827C47.2117 68.0827 38.7305 59.5951 38.7305 49.1618C38.7305 45.5021 39.7742 42.0818 41.5796 39.1855L41.7694 39.1952H43.5126C41.4984 42.037 40.3139 45.5057 40.3139 49.2458C40.3139 58.8482 48.1201 66.661 57.7171 66.661C67.3117 66.661 75.1179 58.8482 75.1179 49.2458C75.1179 45.5057 73.9335 42.037 71.9193 39.1952H72.8552C73.12 39.1952 73.3726 39.1422 73.6032 39.0457ZM46.5652 33.8355C49.6793 31.5752 53.5051 30.2424 57.636 30.2424C61.7664 30.2424 65.5918 31.5752 68.7056 33.8355H65.8136C63.3952 32.5559 60.6391 31.8313 57.7171 31.8313C54.7943 31.8313 52.0377 32.5559 49.619 33.8355H46.5652Z" fill="#FFFCFC" fill-opacity="0.38"/>
<path fill-rule="evenodd" clip-rule="evenodd" d="M65.4091 70.8886H57.778C57.1849 70.8886 55.0256 67.2571 54.8022 66.4399C54.6689 66.2577 54.561 66.0292 54.4719 65.7517C54.137 64.7082 54.3572 62.7189 54.3572 62.7189C54.3293 61.9813 55.0552 61.326 56.0169 61.1817V50.6947C56.0169 49.8837 56.6739 49.2261 57.4845 49.2261H57.8514C58.6619 49.2261 59.3189 49.8837 59.3189 50.6947V57.3532C59.3581 57.525 59.471 57.8062 59.7708 57.749C59.9898 57.4677 60.311 57.2833 60.6797 57.2509L60.7712 57.2429C61.432 57.185 62.0272 57.6348 62.2121 58.2846C62.3333 58.355 62.5149 58.4069 62.7708 58.3568C62.9815 58.1306 63.2712 57.9822 63.5983 57.9536L63.6898 57.9456C64.3151 57.8908 64.8818 58.2908 65.0945 58.8892C65.1848 58.9505 65.3312 59.0134 65.5332 59.0076C65.7168 58.8674 65.9383 58.7806 66.1802 58.7595L66.2718 58.7515C67.0294 58.6851 67.7009 59.2863 67.7716 60.0943L67.8922 61.474L67.904 61.4893C67.904 61.4893 67.8313 64.5277 67.317 66.1889C67.048 67.0576 66.0406 70.4873 65.4091 70.8886Z" fill="url(#paint0_linear_3671_12885)"/>
<path d="M43.6755 34.9222C43.6755 34.7205 43.5143 34.5591 43.3243 34.5591H41.3836C41.1301 34.5591 40.9229 34.7666 40.9229 35.0201V38.0342C40.9229 38.2532 41.1071 38.4376 41.326 38.4376C41.5563 38.4376 41.7405 38.2532 41.7405 38.0342V36.8125H43.2839C43.4739 36.8125 43.6352 36.6511 43.6352 36.4551C43.6352 36.2534 43.4739 36.092 43.2839 36.092H41.7405V35.2794H43.3243C43.5143 35.2794 43.6755 35.1182 43.6755 34.9222ZM47.6432 35.7981C47.6432 35.0836 47.1538 34.5591 46.3533 34.5591H45.0173C44.7639 34.5591 44.5566 34.7666 44.5566 35.0201V38.0342C44.5566 38.2532 44.7409 38.4376 44.9597 38.4376C45.1901 38.4376 45.3744 38.2532 45.3744 38.0342V37.0372H45.9732L46.6297 38.2302C46.7046 38.3627 46.8371 38.4376 46.981 38.4376C47.2229 38.4376 47.3841 38.2302 47.3841 38.0342C47.3841 37.9708 47.3669 37.9017 47.3323 37.8383L46.8025 36.9393C47.2171 36.8412 47.6432 36.4782 47.6432 35.7981ZM46.2324 35.2794C46.5606 35.2794 46.8082 35.4754 46.8082 35.7981C46.8082 36.1209 46.5606 36.3169 46.2324 36.3169H45.3744V35.2794H46.2324ZM51.3577 38.0342C51.3577 37.8441 51.1964 37.6827 51.0064 37.6827H49.4227V36.8125H50.966C51.156 36.8125 51.3173 36.6511 51.3173 36.4551C51.3173 36.2534 51.156 36.092 50.966 36.092H49.4227V35.2794H51.0064C51.1964 35.2794 51.3577 35.1182 51.3577 34.9222C51.3577 34.7205 51.1964 34.5591 51.0064 34.5591H49.0657C48.8122 34.5591 48.605 34.7666 48.605 35.0201V37.942C48.605 38.1956 48.8122 38.403 49.0657 38.403H51.0064C51.1964 38.403 51.3577 38.2417 51.3577 38.0342ZM55.0605 38.0342C55.0605 37.8441 54.8992 37.6827 54.7092 37.6827H53.1256V36.8125H54.6688C54.859 36.8125 55.0201 36.6511 55.0201 36.4551C55.0201 36.2534 54.859 36.092 54.6688 36.092H53.1256V35.2794H54.7092C54.8992 35.2794 55.0605 35.1182 55.0605 34.9222C55.0605 34.7205 54.8992 34.5591 54.7092 34.5591H52.7685C52.5151 34.5591 52.3078 34.7666 52.3078 35.0201V37.942C52.3078 38.1956 52.5151 38.403 52.7685 38.403H54.7092C54.8992 38.403 55.0605 38.2417 55.0605 38.0342ZM60.6925 34.9222C60.6925 34.7205 60.5312 34.5591 60.3412 34.5591H57.9168C57.721 34.5591 57.5597 34.7205 57.5597 34.9107C57.5597 35.1182 57.721 35.2794 57.9168 35.2794H58.7172V38.0284C58.7172 38.2532 58.9016 38.4376 59.1261 38.4376C59.3565 38.4376 59.5407 38.2532 59.5407 38.0284V35.2794H60.3412C60.5312 35.2794 60.6925 35.1182 60.6925 34.9222ZM64.6142 35.7981C64.6142 35.0836 64.1247 34.5591 63.3242 34.5591H61.9882C61.7348 34.5591 61.5275 34.7666 61.5275 35.0201V38.0342C61.5275 38.2532 61.7118 38.4376 61.9306 38.4376C62.1609 38.4376 62.3453 38.2532 62.3453 38.0342V37.0372H62.9441L63.6006 38.2302C63.6755 38.3627 63.808 38.4376 63.9519 38.4376C64.1938 38.4376 64.3551 38.2302 64.3551 38.0342C64.3551 37.9708 64.3378 37.9017 64.3032 37.8383L63.7734 36.9393C64.188 36.8412 64.6142 36.4782 64.6142 35.7981ZM63.2033 35.2794C63.5315 35.2794 63.7791 35.4754 63.7791 35.7981C63.7791 36.1209 63.5315 36.3169 63.2033 36.3169H62.3453V35.2794H63.2033ZM66.3937 38.0342V34.9279C66.3937 34.709 66.2093 34.5245 65.9905 34.5245C65.7602 34.5245 65.5759 34.709 65.5759 34.9279V38.0342C65.5759 38.2532 65.7602 38.4376 65.979 38.4376C66.2093 38.4376 66.3937 38.2532 66.3937 38.0342ZM70.8969 37.9997C70.8969 37.9477 70.8854 37.8959 70.8682 37.8441L69.7509 34.9568C69.6415 34.6744 69.3478 34.5015 69.0542 34.5245C68.7835 34.5245 68.5244 34.6974 68.4264 34.9568L67.3035 37.8441C67.2804 37.8959 67.2747 37.9477 67.2747 37.9997C67.2747 38.2187 67.4475 38.4376 67.7066 38.4376C67.8851 38.4376 68.0464 38.3339 68.1097 38.1668L68.2652 37.7519H69.9122L70.0619 38.1668C70.1252 38.3339 70.2865 38.4376 70.4593 38.4376C70.7241 38.4376 70.8969 38.2129 70.8969 37.9997ZM69.6876 37.0314H68.4898L69.0887 35.3775L69.6876 37.0314ZM74.26 38.0342C74.26 37.8441 74.0988 37.6827 73.9087 37.6827H72.6015V34.9279C72.6015 34.709 72.4172 34.5245 72.1984 34.5245C71.9681 34.5245 71.7838 34.709 71.7838 34.9279V37.942C71.7838 38.1956 71.9911 38.403 72.2444 38.403H73.9087C74.0988 38.403 74.26 38.2417 74.26 38.0342Z" fill="white"/>
<defs>
<filter id="filter0_d_3671_12885" x="0.667969" y="0.666748" width="114.667" height="114.667" filterUnits="userSpaceOnUse" color-interpolation-filters="sRGB">
<feFlood flood-opacity="0" result="BackgroundImageFix"/>
<feColorMatrix in="SourceAlpha" type="matrix" values="0 0 0 0 0 0 0 0 0 0 0 0 0 0 0 0 0 0 127 0" result="hardAlpha"/>
<feOffset dy="8"/>
<feGaussianBlur stdDeviation="12"/>
<feComposite in2="hardAlpha" operator="out"/>
<feColorMatrix type="matrix" values="0 0 0 0 0.756377 0 0 0 0 0.0854755 0 0 0 0 0.0854756 0 0 0 0.24 0"/>
<feBlend mode="normal" in2="BackgroundImageFix" result="effect1_dropShadow_3671_12885"/>
<feBlend mode="normal" in="SourceGraphic" in2="effect1_dropShadow_3671_12885" result="shape"/>
</filter>
<linearGradient id="paint0_linear_3671_12885" x1="58.8695" y1="37.0641" x2="58.8695" y2="72.2385" gradientUnits="userSpaceOnUse">
<stop stop-color="white"/>
<stop offset="0.51" stop-color="white"/>
<stop offset="1" stop-color="white"/>
</linearGradient>
</defs>
</svg>
