<svg width="273" height="112" viewBox="0 0 273 112" fill="none" xmlns="http://www.w3.org/2000/svg">
<g filter="url(#filter0_d_302_4233)">
<rect x="16" y="12" width="241" height="80" rx="8" fill="#06060D"/>
<path d="M64.4477 58.2642C69.0471 55.7143 72.5598 53.7667 72.8793 53.5893C73.8325 53.0608 74.8311 51.7123 72.8793 50.6344C72.252 50.2873 68.8338 48.3994 64.4423 45.9727L58.4023 52.1375L64.4477 58.2642V58.2642Z" fill="#FFE300"/>
<path d="M58.4023 52.1387L39.084 71.8554C39.5202 71.9115 40.045 71.7945 40.6485 71.4599C41.898 70.7672 55.3169 63.3273 64.448 58.2648L58.4023 52.1387V52.1387Z" fill="#FF4E54"/>
<path d="M58.4025 52.1374L64.4424 45.9726C64.4424 45.9726 41.9927 33.5665 40.6487 32.8238C40.1321 32.5383 39.5689 32.4386 39.0703 32.5511L58.4025 52.1374V52.1374Z" fill="#00F085"/>
<path d="M58.4025 52.1387L39.0701 32.5527C38.2716 32.7331 37.6172 33.4332 37.6172 34.8402V69.5056C37.6172 70.8306 38.132 71.7625 39.0839 71.8555L58.4025 52.1387V52.1387Z" fill="#00E0FF"/>
<path d="M99.528 31.136C100.44 31.136 101.228 31.308 101.892 31.652C102.564 31.988 103.076 32.472 103.428 33.104C103.788 33.736 103.968 34.48 103.968 35.336C103.968 36.192 103.788 36.936 103.428 37.568C103.076 38.192 102.564 38.672 101.892 39.008C101.228 39.336 100.44 39.5 99.528 39.5H96.924V31.136H99.528ZM99.528 38.6C100.608 38.6 101.432 38.316 102 37.748C102.568 37.172 102.852 36.368 102.852 35.336C102.852 34.296 102.564 33.484 101.988 32.9C101.42 32.316 100.6 32.024 99.528 32.024H98.016V38.6H99.528ZM108.276 39.608C107.66 39.608 107.1 39.468 106.596 39.188C106.1 38.908 105.708 38.512 105.42 38C105.14 37.48 105 36.88 105 36.2C105 35.528 105.144 34.936 105.432 34.424C105.728 33.904 106.128 33.508 106.632 33.236C107.136 32.956 107.7 32.816 108.324 32.816C108.948 32.816 109.512 32.956 110.016 33.236C110.52 33.508 110.916 33.9 111.204 34.412C111.5 34.924 111.648 35.52 111.648 36.2C111.648 36.88 111.496 37.48 111.192 38C110.896 38.512 110.492 38.908 109.98 39.188C109.468 39.468 108.9 39.608 108.276 39.608ZM108.276 38.648C108.668 38.648 109.036 38.556 109.38 38.372C109.724 38.188 110 37.912 110.208 37.544C110.424 37.176 110.532 36.728 110.532 36.2C110.532 35.672 110.428 35.224 110.22 34.856C110.012 34.488 109.74 34.216 109.404 34.04C109.068 33.856 108.704 33.764 108.312 33.764C107.912 33.764 107.544 33.856 107.208 34.04C106.88 34.216 106.616 34.488 106.416 34.856C106.216 35.224 106.116 35.672 106.116 36.2C106.116 36.736 106.212 37.188 106.404 37.556C106.604 37.924 106.868 38.2 107.196 38.384C107.524 38.56 107.884 38.648 108.276 38.648ZM121.844 32.924L119.792 39.5H118.664L117.08 34.28L115.496 39.5H114.368L112.304 32.924H113.42L114.932 38.444L116.564 32.924H117.68L119.276 38.456L120.764 32.924H121.844ZM126.132 32.804C126.932 32.804 127.58 33.048 128.076 33.536C128.572 34.016 128.82 34.712 128.82 35.624V39.5H127.74V35.78C127.74 35.124 127.576 34.624 127.248 34.28C126.92 33.928 126.472 33.752 125.904 33.752C125.328 33.752 124.868 33.932 124.524 34.292C124.188 34.652 124.02 35.176 124.02 35.864V39.5H122.928V32.924H124.02V33.86C124.236 33.524 124.528 33.264 124.896 33.08C125.272 32.896 125.684 32.804 126.132 32.804ZM131.696 30.62V39.5H130.604V30.62H131.696ZM136.425 39.608C135.809 39.608 135.249 39.468 134.745 39.188C134.249 38.908 133.857 38.512 133.569 38C133.289 37.48 133.149 36.88 133.149 36.2C133.149 35.528 133.293 34.936 133.581 34.424C133.877 33.904 134.277 33.508 134.781 33.236C135.285 32.956 135.849 32.816 136.473 32.816C137.097 32.816 137.661 32.956 138.165 33.236C138.669 33.508 139.065 33.9 139.353 34.412C139.649 34.924 139.797 35.52 139.797 36.2C139.797 36.88 139.645 37.48 139.341 38C139.045 38.512 138.641 38.908 138.129 39.188C137.617 39.468 137.049 39.608 136.425 39.608ZM136.425 38.648C136.817 38.648 137.185 38.556 137.529 38.372C137.873 38.188 138.149 37.912 138.357 37.544C138.573 37.176 138.681 36.728 138.681 36.2C138.681 35.672 138.577 35.224 138.369 34.856C138.161 34.488 137.889 34.216 137.553 34.04C137.217 33.856 136.853 33.764 136.461 33.764C136.061 33.764 135.693 33.856 135.357 34.04C135.029 34.216 134.765 34.488 134.565 34.856C134.365 35.224 134.265 35.672 134.265 36.2C134.265 36.736 134.361 37.188 134.553 37.556C134.753 37.924 135.017 38.2 135.345 38.384C135.673 38.56 136.033 38.648 136.425 38.648ZM140.825 36.188C140.825 35.516 140.961 34.928 141.233 34.424C141.505 33.912 141.877 33.516 142.349 33.236C142.829 32.956 143.361 32.816 143.945 32.816C144.521 32.816 145.021 32.94 145.445 33.188C145.869 33.436 146.185 33.748 146.393 34.124V32.924H147.497V39.5H146.393V38.276C146.177 38.66 145.853 38.98 145.421 39.236C144.997 39.484 144.501 39.608 143.933 39.608C143.349 39.608 142.821 39.464 142.349 39.176C141.877 38.888 141.505 38.484 141.233 37.964C140.961 37.444 140.825 36.852 140.825 36.188ZM146.393 36.2C146.393 35.704 146.293 35.272 146.093 34.904C145.893 34.536 145.621 34.256 145.277 34.064C144.941 33.864 144.569 33.764 144.161 33.764C143.753 33.764 143.381 33.86 143.045 34.052C142.709 34.244 142.441 34.524 142.241 34.892C142.041 35.26 141.941 35.692 141.941 36.188C141.941 36.692 142.041 37.132 142.241 37.508C142.441 37.876 142.709 38.16 143.045 38.36C143.381 38.552 143.753 38.648 144.161 38.648C144.569 38.648 144.941 38.552 145.277 38.36C145.621 38.16 145.893 37.876 146.093 37.508C146.293 37.132 146.393 36.696 146.393 36.2ZM148.934 36.188C148.934 35.516 149.07 34.928 149.342 34.424C149.614 33.912 149.986 33.516 150.458 33.236C150.938 32.956 151.474 32.816 152.066 32.816C152.578 32.816 153.054 32.936 153.494 33.176C153.934 33.408 154.27 33.716 154.502 34.1V30.62H155.606V39.5H154.502V38.264C154.286 38.656 153.966 38.98 153.542 39.236C153.118 39.484 152.622 39.608 152.054 39.608C151.47 39.608 150.938 39.464 150.458 39.176C149.986 38.888 149.614 38.484 149.342 37.964C149.07 37.444 148.934 36.852 148.934 36.188ZM154.502 36.2C154.502 35.704 154.402 35.272 154.202 34.904C154.002 34.536 153.73 34.256 153.386 34.064C153.05 33.864 152.678 33.764 152.27 33.764C151.862 33.764 151.49 33.86 151.154 34.052C150.818 34.244 150.55 34.524 150.35 34.892C150.15 35.26 150.05 35.692 150.05 36.188C150.05 36.692 150.15 37.132 150.35 37.508C150.55 37.876 150.818 38.16 151.154 38.36C151.49 38.552 151.862 38.648 152.27 38.648C152.678 38.648 153.05 38.552 153.386 38.36C153.73 38.16 154.002 37.876 154.202 37.508C154.402 37.132 154.502 36.696 154.502 36.2ZM163.519 39.608C162.903 39.608 162.343 39.468 161.839 39.188C161.343 38.908 160.951 38.512 160.663 38C160.383 37.48 160.243 36.88 160.243 36.2C160.243 35.528 160.387 34.936 160.675 34.424C160.971 33.904 161.371 33.508 161.875 33.236C162.379 32.956 162.943 32.816 163.567 32.816C164.191 32.816 164.755 32.956 165.259 33.236C165.763 33.508 166.159 33.9 166.447 34.412C166.743 34.924 166.891 35.52 166.891 36.2C166.891 36.88 166.739 37.48 166.435 38C166.139 38.512 165.735 38.908 165.223 39.188C164.711 39.468 164.143 39.608 163.519 39.608ZM163.519 38.648C163.911 38.648 164.279 38.556 164.623 38.372C164.967 38.188 165.243 37.912 165.451 37.544C165.667 37.176 165.775 36.728 165.775 36.2C165.775 35.672 165.671 35.224 165.463 34.856C165.255 34.488 164.983 34.216 164.647 34.04C164.311 33.856 163.947 33.764 163.555 33.764C163.155 33.764 162.787 33.856 162.451 34.04C162.123 34.216 161.859 34.488 161.659 34.856C161.459 35.224 161.359 35.672 161.359 36.2C161.359 36.736 161.455 37.188 161.647 37.556C161.847 37.924 162.111 38.2 162.439 38.384C162.767 38.56 163.127 38.648 163.519 38.648ZM171.53 32.804C172.33 32.804 172.978 33.048 173.474 33.536C173.97 34.016 174.218 34.712 174.218 35.624V39.5H173.138V35.78C173.138 35.124 172.974 34.624 172.646 34.28C172.318 33.928 171.87 33.752 171.302 33.752C170.726 33.752 170.266 33.932 169.922 34.292C169.586 34.652 169.418 35.176 169.418 35.864V39.5H168.326V32.924H169.418V33.86C169.634 33.524 169.926 33.264 170.294 33.08C170.67 32.896 171.082 32.804 171.53 32.804ZM180.533 33.824V37.7C180.533 38.02 180.601 38.248 180.737 38.384C180.873 38.512 181.109 38.576 181.445 38.576H182.249V39.5H181.265C180.657 39.5 180.201 39.36 179.897 39.08C179.593 38.8 179.441 38.34 179.441 37.7V33.824H178.589V32.924H179.441V31.268H180.533V32.924H182.249V33.824H180.533ZM186.836 32.804C187.332 32.804 187.78 32.912 188.18 33.128C188.58 33.336 188.892 33.652 189.116 34.076C189.348 34.5 189.464 35.016 189.464 35.624V39.5H188.384V35.78C188.384 35.124 188.22 34.624 187.892 34.28C187.564 33.928 187.116 33.752 186.548 33.752C185.972 33.752 185.512 33.932 185.168 34.292C184.832 34.652 184.664 35.176 184.664 35.864V39.5H183.572V30.62H184.664V33.86C184.88 33.524 185.176 33.264 185.552 33.08C185.936 32.896 186.364 32.804 186.836 32.804ZM197.248 35.96C197.248 36.168 197.236 36.388 197.212 36.62H191.956C191.996 37.268 192.216 37.776 192.616 38.144C193.024 38.504 193.516 38.684 194.092 38.684C194.564 38.684 194.956 38.576 195.268 38.36C195.588 38.136 195.812 37.84 195.94 37.472H197.116C196.94 38.104 196.588 38.62 196.06 39.02C195.532 39.412 194.876 39.608 194.092 39.608C193.468 39.608 192.908 39.468 192.412 39.188C191.924 38.908 191.54 38.512 191.26 38C190.98 37.48 190.84 36.88 190.84 36.2C190.84 35.52 190.976 34.924 191.248 34.412C191.52 33.9 191.9 33.508 192.388 33.236C192.884 32.956 193.452 32.816 194.092 32.816C194.716 32.816 195.268 32.952 195.748 33.224C196.228 33.496 196.596 33.872 196.852 34.352C197.116 34.824 197.248 35.36 197.248 35.96ZM196.12 35.732C196.12 35.316 196.028 34.96 195.844 34.664C195.66 34.36 195.408 34.132 195.088 33.98C194.776 33.82 194.428 33.74 194.044 33.74C193.492 33.74 193.02 33.916 192.628 34.268C192.244 34.62 192.024 35.108 191.968 35.732H196.12ZM109.32 56.788C108.936 56.084 108.408 55.548 107.736 55.18C107.064 54.812 106.28 54.628 105.384 54.628C104.392 54.628 103.512 54.852 102.744 55.3C101.976 55.748 101.376 56.388 100.944 57.22C100.512 58.052 100.296 59.012 100.296 60.1C100.296 61.22 100.512 62.196 100.944 63.028C101.392 63.86 102.008 64.5 102.792 64.948C103.576 65.396 104.488 65.62 105.528 65.62C106.808 65.62 107.856 65.284 108.672 64.612C109.488 63.924 110.024 62.972 110.28 61.756H104.52V59.188H113.592V62.116C113.368 63.284 112.888 64.364 112.152 65.356C111.416 66.348 110.464 67.148 109.296 67.756C108.144 68.348 106.848 68.644 105.408 68.644C103.792 68.644 102.328 68.284 101.016 67.564C99.72 66.828 98.696 65.812 97.944 64.516C97.208 63.22 96.84 61.748 96.84 60.1C96.84 58.452 97.208 56.98 97.944 55.684C98.696 54.372 99.72 53.356 101.016 52.636C102.328 51.9 103.784 51.532 105.384 51.532C107.272 51.532 108.912 51.996 110.304 52.924C111.696 53.836 112.656 55.124 113.184 56.788H109.32ZM121.982 68.716C120.702 68.716 119.55 68.436 118.526 67.876C117.502 67.3 116.694 66.492 116.102 65.452C115.526 64.412 115.238 63.212 115.238 61.852C115.238 60.492 115.534 59.292 116.126 58.252C116.734 57.212 117.558 56.412 118.598 55.852C119.638 55.276 120.798 54.988 122.078 54.988C123.358 54.988 124.518 55.276 125.558 55.852C126.598 56.412 127.414 57.212 128.006 58.252C128.614 59.292 128.918 60.492 128.918 61.852C128.918 63.212 128.606 64.412 127.982 65.452C127.374 66.492 126.542 67.3 125.486 67.876C124.446 68.436 123.278 68.716 121.982 68.716ZM121.982 65.788C122.59 65.788 123.158 65.644 123.686 65.356C124.23 65.052 124.662 64.604 124.982 64.012C125.302 63.42 125.462 62.7 125.462 61.852C125.462 60.588 125.126 59.62 124.454 58.948C123.798 58.26 122.99 57.916 122.03 57.916C121.07 57.916 120.262 58.26 119.606 58.948C118.966 59.62 118.646 60.588 118.646 61.852C118.646 63.116 118.958 64.092 119.582 64.78C120.222 65.452 121.022 65.788 121.982 65.788ZM137.287 68.716C136.007 68.716 134.855 68.436 133.831 67.876C132.807 67.3 131.999 66.492 131.407 65.452C130.831 64.412 130.543 63.212 130.543 61.852C130.543 60.492 130.839 59.292 131.431 58.252C132.039 57.212 132.863 56.412 133.903 55.852C134.943 55.276 136.103 54.988 137.383 54.988C138.663 54.988 139.823 55.276 140.863 55.852C141.903 56.412 142.719 57.212 143.311 58.252C143.919 59.292 144.223 60.492 144.223 61.852C144.223 63.212 143.911 64.412 143.287 65.452C142.679 66.492 141.847 67.3 140.791 67.876C139.751 68.436 138.583 68.716 137.287 68.716ZM137.287 65.788C137.895 65.788 138.463 65.644 138.991 65.356C139.535 65.052 139.967 64.604 140.287 64.012C140.607 63.42 140.767 62.7 140.767 61.852C140.767 60.588 140.431 59.62 139.759 58.948C139.103 58.26 138.295 57.916 137.335 57.916C136.375 57.916 135.567 58.26 134.911 58.948C134.271 59.62 133.951 60.588 133.951 61.852C133.951 63.116 134.263 64.092 134.887 64.78C135.527 65.452 136.327 65.788 137.287 65.788ZM151.895 54.988C152.887 54.988 153.759 55.188 154.511 55.588C155.263 55.972 155.855 56.476 156.287 57.1V55.204H159.671V68.596C159.671 69.828 159.423 70.924 158.927 71.884C158.431 72.86 157.687 73.628 156.695 74.188C155.703 74.764 154.503 75.052 153.095 75.052C151.207 75.052 149.655 74.612 148.439 73.732C147.239 72.852 146.559 71.652 146.399 70.132H149.735C149.911 70.74 150.287 71.22 150.863 71.572C151.455 71.94 152.167 72.124 152.999 72.124C153.975 72.124 154.767 71.828 155.375 71.236C155.983 70.66 156.287 69.78 156.287 68.596V66.532C155.855 67.156 155.255 67.676 154.487 68.092C153.735 68.508 152.871 68.716 151.895 68.716C150.775 68.716 149.751 68.428 148.823 67.852C147.895 67.276 147.159 66.468 146.615 65.428C146.087 64.372 145.823 63.164 145.823 61.804C145.823 60.46 146.087 59.268 146.615 58.228C147.159 57.188 147.887 56.388 148.799 55.828C149.727 55.268 150.759 54.988 151.895 54.988ZM156.287 61.852C156.287 61.036 156.127 60.34 155.807 59.764C155.487 59.172 155.055 58.724 154.511 58.42C153.967 58.1 153.383 57.94 152.759 57.94C152.135 57.94 151.559 58.092 151.031 58.396C150.503 58.7 150.071 59.148 149.735 59.74C149.415 60.316 149.255 61.004 149.255 61.804C149.255 62.604 149.415 63.308 149.735 63.916C150.071 64.508 150.503 64.964 151.031 65.284C151.575 65.604 152.151 65.764 152.759 65.764C153.383 65.764 153.967 65.612 154.511 65.308C155.055 64.988 155.487 64.54 155.807 63.964C156.127 63.372 156.287 62.668 156.287 61.852ZM166.313 50.74V68.5H162.953V50.74H166.313ZM181.993 61.564C181.993 62.044 181.961 62.476 181.897 62.86H172.177C172.257 63.82 172.593 64.572 173.185 65.116C173.777 65.66 174.505 65.932 175.369 65.932C176.617 65.932 177.505 65.396 178.033 64.324H181.657C181.273 65.604 180.537 66.66 179.449 67.492C178.361 68.308 177.025 68.716 175.441 68.716C174.161 68.716 173.009 68.436 171.985 67.876C170.977 67.3 170.185 66.492 169.609 65.452C169.049 64.412 168.769 63.212 168.769 61.852C168.769 60.476 169.049 59.268 169.609 58.228C170.169 57.188 170.953 56.388 171.961 55.828C172.969 55.268 174.129 54.988 175.441 54.988C176.705 54.988 177.833 55.26 178.825 55.804C179.833 56.348 180.609 57.124 181.153 58.132C181.713 59.124 181.993 60.268 181.993 61.564ZM178.513 60.604C178.497 59.74 178.185 59.052 177.577 58.54C176.969 58.012 176.225 57.748 175.345 57.748C174.513 57.748 173.809 58.004 173.233 58.516C172.673 59.012 172.329 59.708 172.201 60.604H178.513ZM202.38 56.932C202.38 57.828 202.164 58.668 201.732 59.452C201.316 60.236 200.652 60.868 199.74 61.348C198.844 61.828 197.708 62.068 196.332 62.068H193.524V68.5H190.164V51.748H196.332C197.628 51.748 198.732 51.972 199.644 52.42C200.556 52.868 201.236 53.484 201.684 54.268C202.148 55.052 202.38 55.94 202.38 56.932ZM196.188 59.356C197.116 59.356 197.804 59.148 198.252 58.732C198.7 58.3 198.924 57.7 198.924 56.932C198.924 55.3 198.012 54.484 196.188 54.484H193.524V59.356H196.188ZM208.125 50.74V68.5H204.765V50.74H208.125ZM210.581 61.804C210.581 60.46 210.845 59.268 211.373 58.228C211.917 57.188 212.645 56.388 213.557 55.828C214.485 55.268 215.517 54.988 216.653 54.988C217.645 54.988 218.509 55.188 219.245 55.588C219.997 55.988 220.597 56.492 221.045 57.1V55.204H224.429V68.5H221.045V66.556C220.613 67.18 220.013 67.7 219.245 68.116C218.493 68.516 217.621 68.716 216.629 68.716C215.509 68.716 214.485 68.428 213.557 67.852C212.645 67.276 211.917 66.468 211.373 65.428C210.845 64.372 210.581 63.164 210.581 61.804ZM221.045 61.852C221.045 61.036 220.885 60.34 220.565 59.764C220.245 59.172 219.813 58.724 219.269 58.42C218.725 58.1 218.141 57.94 217.517 57.94C216.893 57.94 216.317 58.092 215.789 58.396C215.261 58.7 214.829 59.148 214.493 59.74C214.173 60.316 214.013 61.004 214.013 61.804C214.013 62.604 214.173 63.308 214.493 63.916C214.829 64.508 215.261 64.964 215.789 65.284C216.333 65.604 216.909 65.764 217.517 65.764C218.141 65.764 218.725 65.612 219.269 65.308C219.813 64.988 220.245 64.54 220.565 63.964C220.885 63.372 221.045 62.668 221.045 61.852ZM240.431 55.204L232.199 74.788H228.623L231.503 68.164L226.175 55.204H229.943L233.375 64.492L236.855 55.204H240.431Z" fill="white"/>
</g>
<defs>
<filter id="filter0_d_302_4233" x="0" y="0" width="273" height="112" filterUnits="userSpaceOnUse" color-interpolation-filters="sRGB">
<feFlood flood-opacity="0" result="BackgroundImageFix"/>
<feColorMatrix in="SourceAlpha" type="matrix" values="0 0 0 0 0 0 0 0 0 0 0 0 0 0 0 0 0 0 127 0" result="hardAlpha"/>
<feOffset dy="4"/>
<feGaussianBlur stdDeviation="8"/>
<feComposite in2="hardAlpha" operator="out"/>
<feColorMatrix type="matrix" values="0 0 0 0 0 0 0 0 0 0 0 0 0 0 0 0 0 0 0.08 0"/>
<feBlend mode="normal" in2="BackgroundImageFix" result="effect1_dropShadow_302_4233"/>
<feBlend mode="normal" in="SourceGraphic" in2="effect1_dropShadow_302_4233" result="shape"/>
</filter>
</defs>
</svg>
