<svg width="32" height="33" viewBox="0 0 32 33" fill="none" xmlns="http://www.w3.org/2000/svg">
<path d="M16 2C8.26795 2 2 8.26795 2 16C2 23.732 8.26795 29.9999 16 29.9999C23.732 29.9999 30 23.732 30 16C29.9999 8.26795 23.7319 2 16 2ZM12.2648 22.7683H9.19092V12.8376H12.2648V22.7683ZM10.7132 11.5371C9.7093 11.5371 8.89548 10.7167 8.89548 9.70475C8.89548 8.69272 9.70942 7.87231 10.7132 7.87231C11.717 7.87231 12.5308 8.69272 12.5308 9.70475C12.5308 10.7167 11.717 11.5371 10.7132 11.5371ZM23.7839 22.7683H20.725V17.5555C20.725 16.1258 20.1819 15.3277 19.0514 15.3277C17.821 15.3277 17.1783 16.1589 17.1783 17.5555V22.7683H14.2301V12.8376H17.1783V14.1751C17.1783 14.1751 18.0651 12.5347 20.1708 12.5347C22.2766 12.5347 23.784 13.8205 23.784 16.4803L23.7839 22.7683Z" fill="url(#paint0_linear_2717_10597)"/>
<defs>
<linearGradient id="paint0_linear_2717_10597" x1="6.10049" y1="6.10049" x2="25.8995" y2="25.8995" gradientUnits="userSpaceOnUse">
<stop stop-color="#2489BE"/>
<stop offset="1" stop-color="#0575B3"/>
</linearGradient>
</defs>
</svg>
