<svg width="32" height="33" viewBox="0 0 32 33" fill="none" xmlns="http://www.w3.org/2000/svg">
<circle cx="16" cy="16" r="14" fill="#EF3434"/>
<path d="M16.7092 11.0625L17.6878 10.0839C18.031 9.74041 18.4386 9.46787 18.8871 9.28188C19.3357 9.0959 19.8165 9.00011 20.3021 9C20.7877 8.99989 21.2686 9.09545 21.7172 9.28123C22.1659 9.467 22.5735 9.73936 22.9169 10.0827C23.2603 10.4261 23.5326 10.8337 23.7184 11.2824C23.9042 11.7311 23.9997 12.2119 23.9996 12.6975C23.9995 13.1831 23.9037 13.6639 23.7177 14.1125C23.5317 14.5611 23.2592 14.9686 22.9157 15.3118L20.5394 17.6881C20.1961 18.0314 19.7886 18.3036 19.3401 18.4894C18.8916 18.6752 18.4109 18.7708 17.9254 18.7708C17.44 18.7708 16.9593 18.6752 16.5108 18.4894C16.0623 18.3036 15.6548 18.0314 15.3115 17.6881" stroke="white" stroke-width="2.01635" stroke-linecap="round" stroke-linejoin="round"/>
<path d="M16.2902 21.9375L15.3118 22.916C14.9686 23.2595 14.5611 23.5321 14.1125 23.7181C13.6639 23.904 13.1831 23.9998 12.6975 23.9999C12.2119 24 11.7311 23.9045 11.2824 23.7187C10.8337 23.5329 10.4261 23.2606 10.0827 22.9172C9.73936 22.5738 9.467 22.1662 9.28123 21.7175C9.09545 21.2689 8.99989 20.788 9 20.3024C9.00011 19.8168 9.0959 19.336 9.28188 18.8874C9.46787 18.4389 9.74041 18.0314 10.0839 17.6881L12.4602 15.3118C12.8035 14.9686 13.211 14.6963 13.6595 14.5105C14.108 14.3247 14.5887 14.2291 15.0742 14.2291C15.5596 14.2291 16.0403 14.3247 16.4888 14.5105C16.9373 14.6963 17.3448 14.9686 17.6881 15.3118" stroke="white" stroke-width="2.01635" stroke-linecap="round" stroke-linejoin="round"/>
</svg>
