<svg width="32" height="33" viewBox="0 0 32 33" fill="none" xmlns="http://www.w3.org/2000/svg">
<path d="M16 30C23.732 30 30 23.732 30 16C30 8.26801 23.732 2 16 2C8.26801 2 2 8.26801 2 16C2 23.732 8.26801 30 16 30Z" fill="#55ACEE"/>
<path d="M24.5756 12.0613C23.9648 12.3319 23.3169 12.5094 22.6535 12.5877C23.3524 12.1697 23.8755 11.5118 24.1251 10.7366C23.4683 11.1264 22.7496 11.401 22.0001 11.5485C21.6869 11.2145 21.3084 10.9483 20.8882 10.7666C20.4679 10.5849 20.0148 10.4915 19.5569 10.4921C17.7091 10.4921 16.2105 11.9907 16.2105 13.8385C16.2105 14.1008 16.2402 14.3561 16.2976 14.6011C13.5165 14.4616 11.0505 13.1295 9.39991 11.1042C9.10226 11.615 8.94585 12.1957 8.9467 12.7868C8.9467 13.9475 9.53792 14.9722 10.4353 15.5722C9.9039 15.5558 9.38415 15.4121 8.91975 15.1532L8.9195 15.1956C8.9195 16.817 10.0735 18.1694 11.6041 18.4766C11.3168 18.555 11.0203 18.5945 10.7226 18.5941C10.5065 18.5941 10.2971 18.5734 10.0929 18.5345C10.5187 19.8637 11.7543 20.8312 13.219 20.8584C12.0335 21.7888 10.5695 22.2934 9.0625 22.2909C8.79297 22.2909 8.52594 22.2752 8.26465 22.244C9.79445 23.2276 11.5752 23.7496 13.3939 23.7476C19.5491 23.7476 22.9153 18.6485 22.9153 14.226C22.9153 14.081 22.912 13.9365 22.9055 13.7933C23.5609 13.3201 24.1265 12.7335 24.5756 12.0613Z" fill="#F1F2F2"/>
</svg>
