<svg width="32" height="33" viewBox="0 0 32 33" fill="none" xmlns="http://www.w3.org/2000/svg">
<path d="M26.9205 6.92238C24.5297 4.6263 21.3512 3.24262 17.9768 3.02902C14.6024 2.81542 11.2622 3.78645 8.57811 5.76129C5.89401 7.73613 4.04901 10.5802 3.38668 13.7638C2.72435 16.9474 3.28982 20.2537 4.97781 23.0668L3 30L10.3906 28.1396C12.4348 29.2082 14.7252 29.7682 17.0528 29.7683H17.0587C19.8157 29.7681 22.5107 28.9832 24.8031 27.5128C27.0955 26.0424 28.8823 23.9526 29.9378 21.5075C30.9933 19.0624 31.27 16.3717 30.7329 13.7757C30.1958 11.1796 28.8691 8.79471 26.9205 6.92238ZM17.0587 27.5086H17.0542C14.9791 27.5087 12.9421 26.9732 11.1565 25.9581L10.7332 25.7173L6.34697 26.8211L7.51785 22.7169L7.24194 22.2962C5.87631 20.2071 5.27258 17.7415 5.52564 15.2871C5.7787 12.8327 6.87421 10.5286 8.63995 8.73702C10.4057 6.94546 12.7415 5.76804 15.2803 5.38984C17.819 5.01165 20.4167 5.45413 22.6649 6.64772C24.9132 7.84132 26.6845 9.71835 27.7004 11.9837C28.7164 14.2491 28.9193 16.7744 28.2774 19.1626C27.6355 21.5508 26.185 23.6664 24.1541 25.177C22.1232 26.6875 19.627 27.5073 17.0578 27.5075L17.0587 27.5086Z" fill="#E0E0E0"/>
<path d="M3.93359 29.1L5.77968 22.6285C4.34954 20.2465 3.77803 17.4782 4.15374 14.7526C4.52946 12.0271 5.83141 9.49671 7.85774 7.55375C9.88408 5.61079 12.5216 4.36382 15.3613 4.00618C18.2011 3.64854 21.0844 4.20021 23.5643 5.57565C26.0442 6.95109 27.9821 9.07346 29.0775 11.6137C30.173 14.154 30.3647 16.9701 29.6231 19.6257C28.8815 22.2812 27.2479 24.6276 24.9757 26.3013C22.7034 27.9749 19.9194 28.8822 17.0553 28.8824H17.0496C14.8776 28.882 12.7403 28.3596 10.8327 27.3628L3.93469 29.099L3.93359 29.1Z" fill="url(#paint0_linear_2717_10582)"/>
<path fill-rule="evenodd" clip-rule="evenodd" d="M13.7894 10.7853C13.5486 10.2286 13.295 10.2174 13.066 10.2079C12.8785 10.1994 12.664 10.2 12.45 10.2C12.2871 10.2044 12.1269 10.2439 11.9793 10.3159C11.8318 10.3879 11.7002 10.4908 11.5927 10.6182C11.2292 10.9761 10.9414 11.4088 10.7477 11.8888C10.5539 12.3687 10.4585 12.8854 10.4674 13.4058C10.4674 15.0505 11.6195 16.6398 11.7802 16.8628C11.9409 17.0859 14.0042 20.5686 17.2716 21.9083C19.9871 23.0217 20.5398 22.8003 21.1293 22.7446C21.7187 22.6889 23.031 21.9362 23.2991 21.1556C23.5672 20.375 23.5669 19.7061 23.4866 19.5663C23.4062 19.4265 23.192 19.3435 22.8703 19.1762C22.5487 19.0088 20.9686 18.2001 20.6737 18.0887C20.3788 17.9773 20.1646 17.9216 19.9503 18.2563C19.7361 18.5911 19.1203 19.3433 18.9326 19.5669C18.7449 19.7905 18.5574 19.818 18.236 19.651C17.2883 19.2581 16.4136 18.6968 15.651 17.9921C14.9481 17.3166 14.3455 16.5366 13.8626 15.6774C13.6752 15.3432 13.8424 15.1619 14.0039 14.9948C14.1483 14.8452 14.3253 14.6047 14.4863 14.4094C14.6182 14.2405 14.7263 14.0528 14.8074 13.8522C14.8502 13.76 14.8702 13.6582 14.8656 13.5559C14.861 13.4537 14.832 13.3542 14.7811 13.2666C14.7 13.0992 14.0751 11.4463 13.7894 10.7853Z" fill="white"/>
<path d="M26.9194 6.92588C24.5293 4.62857 21.3507 3.24368 17.9758 3.02924C14.6009 2.8148 11.2599 3.78544 8.57527 5.76031C5.89062 7.73518 4.04546 10.5796 3.38358 13.7635C2.7217 16.9475 3.28824 20.2539 4.97763 23.0666L3 30L10.3902 28.1399C12.4342 29.2084 14.7245 29.7683 17.052 29.7684H17.058C19.815 29.7686 22.5102 28.9841 24.8028 27.514C27.0954 26.0439 28.8824 23.9543 29.9379 21.5094C30.9934 19.0644 31.27 16.374 30.7327 13.7782C30.1954 11.1824 28.8684 8.79777 26.9194 6.92588ZM17.058 27.509H17.0548C14.9797 27.5092 12.9427 26.9737 11.1572 25.9588L10.7339 25.7179L6.34727 26.8216L7.51803 22.7173L7.24234 22.2967C5.87682 20.2078 5.27318 17.7426 5.52632 15.2885C5.77945 12.8344 6.875 10.5306 8.64075 8.73933C10.4065 6.94806 12.7423 5.77085 15.281 5.39278C17.8197 5.0147 20.4173 5.45719 22.6654 6.65069C24.9136 7.84418 26.6848 9.72101 27.7007 11.9861C28.7165 14.2512 28.9194 16.7762 28.2774 19.164C27.6354 21.5519 26.185 23.6672 24.1541 25.1776C22.1232 26.6879 19.627 27.5075 17.058 27.5076V27.509Z" fill="white"/>
<defs>
<linearGradient id="paint0_linear_2717_10582" x1="17.0003" y1="29.1" x2="17.0003" y2="3.90002" gradientUnits="userSpaceOnUse">
<stop stop-color="#20B038"/>
<stop offset="1" stop-color="#60D66A"/>
</linearGradient>
</defs>
</svg>
